<?xml version="1.0" encoding="utf-8"?>
<!-- Generator: Adobe Adobe Illustrator 24.2.0, SVG Export Plug-In . SVG Version: 6.00 Build 0)  -->
<svg version="1.1" xmlns="http://www.w3.org/2000/svg" xmlns:xlink="http://www.w3.org/1999/xlink" x="0px" y="0px"
	 width="1722.6px" height="1722.6px" viewBox="0 0 1722.6 1722.6" style="enable-background:new 0 0 1722.6 1722.6;"
	 xml:space="preserve">
<style type="text/css">
	.st0{fill:#A97D27;}
	.st1{fill:#AEBF95;}
	.st2{fill:#F2BEA0;}
	.st3{fill:#F2DEA0;}
	.st4{fill:#F2E8DF;}
	.st5{fill:#CD9398;}
	.st6{fill:#F2B3B8;}
	.st7{fill-rule:evenodd;clip-rule:evenodd;fill:#CD9398;}
	.st8{fill:#374029;}
</style>
<g id="Comb">
</g>
<g id="Single">
	<g>
		<path class="st0" d="M1577.8,1231.3c-0.2,11-0.5,22.4-5.7,32.1c-5.9,10.9-17.1,17.8-27.9,24.2
			c-215.9,128.1-431.9,256.2-647.8,384.2c-8.4,5-17.2,10.1-27,10.4c-10.8,0.4-20.8-5.2-30.1-10.5
			c-222.1-127-444.1-254.1-666.2-381.1c-10.1-5.8-20.7-12.1-26.1-22.3c-4.6-8.8-4.7-19.1-4.7-28.9c0.5-251.7,1-503.3,1.5-755
			c0-12.6,0.2-25.8,6.8-36.5c6-9.8,16.4-15.9,26.4-21.6C396.4,301.2,615.8,176.1,835.2,50.9c9-5.1,18.4-10.4,28.7-10.6
			C875,40.1,885.3,45.6,895,51c216.6,120.8,433.2,241.6,649.8,362.3c8.9,4.9,18.1,10.2,23.6,18.7c6.2,9.6,6.7,21.7,6.9,33.1
			C1581,720.5,1581.8,976,1577.8,1231.3"/>
		<path class="st4" d="M823.8,381.2c-4.2,29.8-4.7,60.6-14.7,89s-32.7,55.1-62.8,58.9c-28.3,3.5-55.9-14.6-71-38.6
			c-15.1-24-20-52.9-22.6-81.1c-3-31.7-43.9-48.4-74.3-38.3c-30.4,10.1-51.4,37.3-69.1,63.9c-17.7,26.6-35.2,55.2-63.1,71
			c-27.9,15.8-69.8,12.5-84.7-15.7c-8.8-16.6-6.2-36.7-1.5-54.8c10.5-40.5,30.4-78.7,57.7-110.6c-73.3,41.2-146.7,82.3-220,123.5
			c-7.2,4-14.6,8.3-19.2,15.2c-5.4,8.3-5.6,18.8-5.6,28.7c0.1,240.5,0.2,481,0.2,721.5c0,18.5,1.9,40.5,18.1,49.8
			c217,124.2,433.9,248.4,650.9,372.5c13.6,7.8,30.5,15.6,44,7.6c212.3-126,424.6-252.1,636.9-378.1c8.5-5,17.3-10.5,22-19.1
			c4.3-7.9,4.3-17.3,4.3-26.2c-0.3-241-0.6-481.9-0.9-722.9c0-20.2-2.2-44.2-19.9-54.1c-93.4-51.9-186.8-103.7-280.1-155.6
			c-14.6,21.7-44.7,28.5-70.4,23.1c-25.7-5.4-48-20.6-69.6-35.4c9.1,31.6,18.2,63.2,27.4,94.8c7.6,26.4,15.3,53.4,14.4,80.8
			s-11.7,56.1-34.5,71.7c-45.6,31.5-108.7-3.6-143.6-46.4s-62.3-97-113.7-118c-6.8-2.8-14.7-4.9-21.4-1.8
			C828,360.6,825.2,371.6,823.8,381.2"/>
		<path class="st3" d="M820.5,329.2c22.6-15,53.7-5.5,75.9,10.1c53.9,37.7,80.8,104.3,132.5,145.1c19.4,15.3,46.8,26.5,68.2,14.2
			c14-8,21.3-24.2,23.7-40.1c8.3-54.4-29.7-104.3-40.4-158.3c-3.8-19.3-2-43.3,15.2-53.2c13.4-7.7,30.7-3.2,43.9,4.7
			c13.3,7.9,24.6,18.9,38.7,25.3c14.1,6.4,32.8,6.8,42.9-4.9c-117.4-65.7-234.9-131.4-352.3-197.1c-7.1-3.9-15.8,0.1-22.8,4.1
			c-118.5,67.5-237,135-355.5,202.6c-10.3,5.8-20.9,12-27.4,21.8c-25.3,37.8-48.1,77.2-68.3,117.9c-5.1,10.3-10.1,21-10.6,32.4
			c-0.5,11.4,4.7,23.9,15.2,28.6c12.9,5.9,27.8-1.6,38.9-10.3c24.5-19.2,42.4-45.2,61.6-69.7c19.1-24.5,40.7-48.6,69.1-61.4
			s65.2-11.9,87.4,10c17.4,17.1,22.5,42.7,27,66.6c4.5,23.9,10.2,49.5,28.3,65.9c18.1,16.4,52.7,16.2,62.6-6
			c9.1-20.7,15.1-42.7,17.6-65.1C795.1,382.2,795,346.1,820.5,329.2z"/>
	</g>
	<g>
		<g>
			<path class="st5" d="M410.3,1018.4c21.3-5,42.3-9.7,63.8-10.9c1-0.1,1.9-0.8,2.8-1.3c-1.4-1-2.6-2.4-4.1-3.1
				c-10.3-4.6-21-8.3-30.8-13.6c-20.8-11.1-39.3-25.5-56.5-41.5c-10.8-10.1-21.8-19.9-32-30.6c-25.8-27.3-52.2-54.2-72.8-86
				c-14.6-22.5-20.5-47.1-15.2-73.6c3.1-15.3,15.6-21.6,29-25.7c7.1-2.2,14.7-2.9,21.9-4.6c13-3,20.9-17.2,17.2-30.7
				c-4.8-17.8-11.7-35.4-14.2-53.6c-3.5-25.5,0.8-49.9,29.5-63.7c14.6-7,30-13.4,45.8-16.8c11.6-2.5,24.4-0.1,36.6,0.9
				c11.8,1,23.6,2.8,35.3,4.5c31,4.5,61.3,10.3,87.9,28.9c24.7,17.3,51.1,32.2,74.9,50.6c16.9,13,30.7,30,46,45.2
				c1.6,1.6,4,2.3,6,3.5c-0.1-1.8,0-3.7-0.5-5.4c-3.1-12.1-6.5-24.1-9.5-36.3c-1.2-5-2.1-10.3-2.3-15.4c-0.3-12.9-0.1-25.8-0.1-38.7
				c-0.2-31.8,5.5-62.6,15-92.8c4.4-13.9,7.5-28.1,11.9-42c7.2-22.8,12.3-46.7,31.4-63.7c7.6-6.8,16.6-9.8,26.7-11.2
				c20-2.8,37.1,5.6,54.8,12.5c12.4,4.8,25.2,2.9,37.9,1.5c6.2-0.7,12.4-1.1,18.6-1.9c13.8-1.9,27.6-5.1,41.5-5.6
				c13.1-0.5,26.1,2.1,38.7,7c20.8,8.2,38.6,20.1,47.8,41c4.4,10.1,6.3,21.5,7.8,32.5c2.7,19.3,0.8,39.5,12.2,56.8
				c7,10.6,14.6,20.8,21.9,31.2c11.7,16.6,17.7,35.5,21.2,55.3c1.3,7.5,2.2,15,3,22.6c2.4,24.2-2.5,47.3-11.9,69.5
				c-7.9,18.8-15.1,38.1-24.8,56c-8.3,15.4-19.7,29.1-29.7,43.6c-0.7,1-1.7,1.8-2.1,2.9c-0.6,1.9-0.7,3.9-1,5.8
				c2-0.4,4.7-0.1,5.9-1.4c14.3-13.7,33.2-20,48.9-31.3c11.1-8,22.5-15.5,33.2-24.1c10.2-8.2,19.8-17.2,29.4-26.3
				c18.1-17.1,31.1-37.8,43.5-59.3c17-29.5,33.4-59.7,55.7-85.7c17.8-20.8,38.1-38.8,65.5-46.5c23.8-6.7,47.8-9,72.5-5.6
				c17.3,2.4,32.1,8.5,39.8,25.2c2.6,5.6,3.8,12.2,4,18.4c0.5,17.2,0.6,34.3,7.6,50.6c3.8,8.8,8.7,16.8,17.6,20.5
				c24.7,10.2,34.8,31.4,41.8,54.6c7.6,25.2,1.2,49.4-7.5,73.2c-11.1,30.3-28.7,56.8-48.2,82c-19.2,24.7-41.8,46.1-67.1,65.1
				c-31.6,23.8-64.9,44.7-100.7,61c-22.1,10-45.6,17.1-68.7,24.6c-17.8,5.8-35.8,12-54.2,14.5c-16,2.2-32.7-0.2-49.1-1.3
				c-8.4-0.6-16.7-2.6-25.1-4.1c-5.6-1-11.1-2.3-16.7-2.8c-2.1-0.2-4.3,1.4-6.4,2.1c1.4,1.2,2.7,3.1,4.4,3.6
				c14.6,3.7,29.3,7.3,44.1,10.4c5.6,1.2,11.5,1.6,17.2,1.5c28.9-0.1,57.3-3.6,84.8-12.7c36.2-12,72.1-24.9,108.5-36.6
				c12-3.8,24.7-5.3,37.3-7.1c8.9-1.2,17.9-1.4,26.9-1.5c4.4,0,9,0.8,13.3,2c11.5,3.4,17.6,12.6,18.2,24.8
				c1.1,20-5.7,37.7-13.2,55.7c-12.1,28.9-28.3,55.4-46.8,80.3c-9.2,12.4-21.1,23-32.9,32.9c-6.7,5.6-15.9,8.2-23.8,12.4
				c-20.3,11-29.7,30.2-36.7,50.8c-3.4,9.8-5.8,20-8.3,30.1c-4.6,18.6-16.9,32.6-28,47.2c-12.3,16.2-29.3,26.2-47.1,35.2
				c-26.2,13.3-54,22.2-81.9,30.5c-21.8,6.5-44,11.5-66.2,16.3c-29.1,6.3-58.7,10.5-88.4,7.4c-18.7-2-37.4-6.3-55.3-12
				c-12.3-3.9-23.6-11.7-29.8-24.1c-3-6-4.4-12.6-1.6-19.6c3.9-9.9,6.9-20.2,18.2-24.5c0.6-0.2,1.3-2.6,0.9-2.9
				c-0.8-0.8-2.3-1.3-3.5-1.4c-25.5-0.9-50.5,0.8-75.2,9c-22.6,7.5-41.5,21.1-61.8,32.5c-23.5,13.3-45.2,30-71.3,38.2
				c-16.2,5.1-32.9,6.5-50.1,2c-33.1-8.7-62.2-25.5-90.8-43.3c-12.3-7.7-26.1-11.4-40.2-14.5c-12.9-2.9-25.9-5.5-38.7-9
				c-14.2-3.9-26.7-11.3-37.2-21.4c-12.1-11.5-24.2-23.2-34.5-36.2c-13-16.2-21.5-35.1-25.3-55.7c-2.6-14.7-4.6-29.6-6-44.4
				c-2.5-26.2,2.6-51.3,14.4-74.7c9.9-19.7,24.5-36,41.9-49.6c9.2-7.2,17.8-15.4,27.7-21.3C385.9,1028.5,398.2,1024.1,410.3,1018.4"
				/>
			<path class="st6" d="M323.6,1239.3c0.2,1.2,0.2,2.5,0.7,3.6c9.8,20.8,25.5,36.9,41.9,52.6c18.4,17.6,41,24.6,65.2,27.8
				c18.4,2.4,35.9,8.1,51.6,17.5c20.2,12.2,39.8,25.4,62.2,33.3c13.9,4.9,28.3,10,42.8,11.3c19.3,1.7,36.7-7.4,53-17
				c29.9-17.5,58.8-36.9,90.6-51.1c23.3-10.5,47.3-16.7,73-16.2c15.2,0.3,30.4,0.7,45.6,1.6c8.2,0.5,16.3-5.5,18.9-13.8
				c5.5-18.2,7.9-36.3,3-55.2c-6.4-24.7-11.9-49.7-18-74.5c-4.8-19.3-9.6-38.7-15.1-57.8c-1.7-5.8-3-12.1-10.5-15.2
				c-3.9-1.6-7.7-7.8-8.1-12.3c-0.6-5.3,4.5-8.1,10.2-9.7c15.2-4.3,24.9,1.5,27.8,14.6c2.5,11.3,2.2,23.3,4.9,34.6
				c6.6,28,13.6,55.8,21.5,83.4c5.1,17.8,8.3,35.8,9.3,54.1c0.6,10.7-0.4,21.8-3,32.2c-4.1,16.9-11.7,31.6-29.5,39.2
				c-13.7,5.9-24.9,15.9-33.6,28.2c-3.3,4.6-4.3,10,0.7,13.7c5.4,3.9,11.2,8.1,17.5,9.8c16,4.3,32.2,8.3,48.5,10.4
				c15.7,2,31.9,2.6,47.7,1.4c14.1-1.1,27.9-5.3,41.7-8.6c25.9-6.2,52-12,77.6-19.5c18.7-5.5,36.5-13.6,54.9-20.2
				c16.1-5.8,30.6-14.8,42.4-26.7c13.5-13.6,22.4-30.8,28.7-49c5.6-16.3,9.5-33.4,16.8-48.9c10.9-23.5,30.2-39,53.4-50.3
				c13.8-6.7,26.8-14.8,34.7-29.2c6.4-11.6,14.3-22.4,21.4-33.6c15.3-24.1,28.5-49.2,33.2-77.9c1.7-10.2-3-17.2-13.3-16.9
				c-13,0.4-26.1,1.2-39,3c-24.9,3.4-48.3,12.1-71.5,21.4c-14.3,5.7-28.7,11.2-43.5,15.5c-14.9,4.4-30.1,8.1-45.4,10.7
				c-20.5,3.6-41.2,7.2-62,8.3c-12.4,0.7-25.4-2.5-37.7-5.7c-12.4-3.2-24.3-8.3-36.2-13.2c-17.3-7.2-30.6-22.4-50.1-25.2
				c-0.5-0.1-1.1,0.2-1.5-0.1c-4.9-2.9-8.1-10.9-6.5-15.8c1.7-5.1,11.5-12.5,16.1-11.9c8.4,1.2,16.8,2.7,25.2,3.8
				c20.6,2.6,41.1,4.9,61.7,7.5c7.9,1,15.8,3.2,23.7,3.8c15.6,1.1,31.6,4,46.7,1.4c21.5-3.7,42.2-11.5,63.2-17.8
				c38.2-11.5,73.9-28.5,107.4-50c28.8-18.5,56.7-38.2,80.3-63.3c5.9-6.3,11.4-13.1,16.9-19.8c17.6-21.4,33.1-44.1,44.4-69.5
				c7.5-16.8,13.2-34.1,13.1-52.6c0-8.1-1.4-16.7-4.5-24.1c-5.4-12.7-10.8-25.6-25.6-31.8c-15.2-6.3-24.9-18.5-31-34.2
				c-6-15.6-7.5-31.3-7.4-47.7c0.1-5.6-1-11.4-2.7-16.7c-5-15-19.6-16.7-31.4-18.2c-13.9-1.8-28.3-2.1-42.8,0.4
				c-25.8,4.5-47.9,15.1-65.6,34c-9.6,10.3-17.9,22.1-25.5,34c-13.4,20.9-26.2,42.2-38.8,63.6c-13.2,22.3-27.7,43.5-47,60.9
				c-10.4,9.4-20.7,19.1-31.9,27.3c-18.4,13.4-37.2,26.1-56.4,38.2c-19.5,12.2-39.9,23.4-53.6,42.6c-6.6,9.3-15.3,18.4-13.7,31.5
				c1.1,9.2-3,14.9-10.6,19.4c-7.3,4.3-15.1,1-16.3-7.5c-1.6-11.6,0.5-22.5,5.8-32.9c8.8-17.2,17.2-34.6,26.5-51.6
				c6.1-11.2,13.5-21.7,20.4-32.5c7.2-11.2,15.8-21.7,21.5-33.6c9.1-19,16.3-38.9,24.3-58.4c4.2-10.3,7.9-20.7,7.2-32
				c-0.8-14.2-0.8-28.7-3.2-42.7c-2.8-16.4-8.9-32-18.9-45.7c-7.6-10.4-16-20.5-22.3-31.8c-8.6-15.6-12.1-32.8-12.3-50.8
				c-0.1-8.2-0.9-16.5-2.7-24.4c-4.3-19.6-16.3-32.7-34.6-41c-20.6-9.3-41.2-14-63.6-7.9c-9.3,2.5-19,3.4-28.7,4.5
				c-8.2,0.9-16.7,0.1-24.6,1.8c-10.8,2.4-20.5,0.1-30.1-3.8c-14.6-5.9-28.8-12.1-45.2-11.6c-11.4,0.3-19.2,5.4-23.3,14.8
				c-5.9,13.4-11.2,27.3-14.9,41.4c-9.3,34.8-24.6,68-25.6,104.9c-0.4,15.5-3.2,31-2.5,46.4c0.7,14.7,4,29.4,7.2,43.8
				c6.5,29.6,16.1,58.1,31.1,84.7c15.5,27.4,32.1,53.9,52.3,78.2c18.7,22.6,35.5,46.7,52.8,70.4c4.8,6.6,4.4,17.3-1.1,21.8
				c-5.6,4.5-11,3.6-18.5-4.5c-5.9-6.4-11.5-13-16.9-19.8c-7.6-9.7-15.3-19.4-22-29.6c-7.9-12-14.6-24.7-22.3-36.9
				c-8.3-13.2-18.1-25.6-25.5-39.4c-12.6-23.4-26.8-45.4-46.9-63.2c-7.7-6.8-13.9-15.1-21.2-22.4c-11.1-11.1-21.8-23-34.1-32.5
				c-18.4-14.1-38.3-26.2-57.2-39.7c-17.8-12.7-36.1-24.8-57.1-31.2c-13.6-4.2-27.9-6-42.1-8.2c-18.8-2.9-37.6-5.3-56.5-7.5
				c-18.8-2.1-35.7,5.2-52.3,12.2c-10.2,4.4-18.8,12.7-18.5,25.2c0.2,9.9,1.1,20.2,3.9,29.6c5.7,19.2,11.2,38.3,9.3,58.7
				c-1,10.9-4.8,20.8-13.2,28c-9.9,8.5-22.2,11.5-34.8,12.9c-11.8,1.4-20.2,6-20.3,14.3c-0.1,8.9,0.8,17.9,2.7,26.6
				c5.1,23.4,21.1,40.5,35.8,58.1c10,12,20.6,23.5,31.6,34.6c19.5,19.6,38.6,39.7,59.5,57.7c25.3,21.9,54.8,37.3,86.9,47
				c15,4.6,30.3,8.8,45.7,11.9c15.9,3.3,32.1,5.3,48.3,7.6c17.8,2.6,35.6,5.9,53.5,7.2c17.8,1.2,35.7,0.1,53.6,0.3
				c11.9,0.1,22.4-3.7,32.5-9.7c3.2-1.9,9.4-2,12.1-0.1c2.1,1.5,1.5,7.6,1,11.6c-0.2,2-2.3,4.3-4.1,5.7
				c-11.6,8.9-25.2,13.9-39.3,14.5c-23.6,0.9-47.2-0.7-70.9-1.1c-1.8,0-3.6,0.9-5.3,1.4c-3.6,1-7.1,2.7-10.7,2.8
				c-5,0.2-10-0.7-15-1.4c-13.8-1.9-27.6-4.1-41.5-5.9c-15.8-2.1-31.6-5-47.4-5.8c-28.3-1.3-56.3,1.8-84.1,7.1
				c-17.5,3.4-33.8,9.2-48.7,19.1c-17,11.3-31.9,24.7-45,40.4c-14.6,17.5-22.8,37.5-24.4,59.9c-1,13.8,0.4,27.9,1.3,41.8
				C312.7,1211.5,316.3,1225.4,323.6,1239.3z"/>
		</g>
		<g>
			<g>
				<path class="st7" d="M821.7,959.4c2.7,3.6-0.3,6-2.5,7.2c-1.8,1-4.9,0.2-7.1-0.6c-2-0.7-3.5-2.7-5.4-3.8
					c-0.7-0.4-2.4-0.4-2.9,0.1c-0.5,0.5-0.2,1.9-0.2,3c-0.1,2.5-0.1,4.9-0.2,7.4c-2-0.3-4.2-0.4-6.1-1.1c-2.6-0.8-5-2.1-7.5-3.1
					c1.1,2.2,2.3,4.4,3.3,6.7c0.6,1.3,0.9,2.6,1.3,3.9c-1.7,0.4-3.5,1.2-5.1,1c-2.5-0.4-4.8-1.6-7.3-2.3c-1.1-0.3-2.3-0.3-3.4-0.4
					c0.5,1.3,0.7,3.1,1.6,3.7c2.6,1.8,5.7,2.8,8.2,4.7c2.1,1.6,3.7,3.8,5.5,5.8c-1.6,1.4-3.1,2.8-4.7,4.2c-0.5,0.4-1.2,0.8-1.3,1.4
					c-1.7,6.7-7.2,7.7-12.7,8.7c-1,0.2-1.8,1.3-2.8,1.9c1,0.6,2,1.6,3.1,1.7c4.5,0.6,9,0.7,13.4,1.5c1.8,0.3,3.7,1.7,4.8,3.2
					c0.5,0.7-0.7,3.2-1.7,4.1c-2.2,2-4.9,3.4-7.3,5.3c-1.4,1.1-2.4,2.7-3.5,4c1.5,0.3,3,0.8,4.5,1c5.1,0.5,6.4,3.1,4,7.5
					c-4.7,8.6-9.2,17.3-13.4,26.2c-0.7,1.5,0.3,3.7,0.5,5.6c1.5-1.2,3.2-2.2,4.5-3.6c5.4-6,10.6-12.1,16.2-18c0.9-1,3.2-1.5,4.5-1
					c1.1,0.4,2,2.4,2.1,3.8c0.3,3.6,0,7.1,0,10.7c0,1.9,0.1,3.7,0.2,5.6c1.7-1.5,3.7-2.7,5-4.5c2.6-3.9,4.4-8.5,7.4-12.1
					c3.2-4,6.7-3.3,9.2,1.2c2.2,3.9,4.3,8,6.1,12.1c2.2,4.8,3.9,5,6.7,0.3c1.9-3.2,4.7-6.8,7.9-8.1c5.8-2.2,8.7,2.5,11.1,7.1
					c0.6,1.1,1.8,1.8,2.8,2.8c0.3-0.6,0.9-1.3,0.9-1.9c0-6.2,3.5-7.6,8.9-7c2.5,0.3,5.1-0.1,7.6,0.1c3.7,0.2,5.7-1.1,6.5-5
					c1-4.5,3-8,8.9-5.3c2.3,1.1,5.2,1.5,7.6,1.1c1.4-0.2,3.8-3.5,3.4-4.1c-2.9-5,0-7.3,3.9-8.8c4.6-1.8,4.4-4.3,1.7-7.5
					c-3-3.4-0.5-5.6,2-7.1c1.8-1.1,4.2-0.9,6.4-1.4c1.7-0.4,3.4-1.1,5-1.6c-1.4-0.7-3-1.3-4.2-2.3c-2.4-2-4.7-4.3-7-6.5
					c2.2-2,4.2-4.5,6.7-6c2.8-1.7,6-2.9,9.2-3.8c3.3-0.9,3.7-2.1,1-4.1c-2.9-2.2-6.9-3.6-8.6-6.4c-3.1-5.4-4.8-11.5-7.1-17.3
					c-0.4-0.9-1.1-1.7-1.7-2.5c-0.6,0.5-1.3,0.8-1.8,1.4c-2.9,3.4-7,3.2-7.7-1.1c-1.4-7.7-1.5-15.6-2.1-23.4c-0.2-2-0.6-4-1-6.1
					c-1.2,1.4-2.6,2.7-3.6,4.3c-3.4,5.4-6.3,11.1-10,16.1c-2.7,3.7-7.7,2.9-8.8-1.2c-2.2-7.8-3.5-15.9-5.2-23.9
					c-0.3-1.3-0.1-2.6-0.2-4c-1.2,1.1-2.9,1.9-3.6,3.2c-1.9,3.8-2.8,8.3-5.3,11.7c-6,8.3-8.9,7.4-15.1,0.4c-2-2.2-3.3-4.9-5-7.4
					c-0.7-1.1-1.5-2.1-2.2-3.1c-1,1.3-2.6,2.4-2.9,3.9c-0.8,3.6-0.7,7.3-1.5,10.8c-0.7,2.8-1.5,6.6-3.5,7.7c-3,1.6-5.6-0.8-6.8-4.3
					c-0.3-0.8-2.1-1.8-2.9-1.6c-0.9,0.3-1.8,1.9-1.8,2.9C820.5,954.7,821.2,956.4,821.7,959.4z M991.8,944.8
					c2.4,1.3,4.5,2.4,5.7,4.1c0.5,0.7-0.9,3.3-2,4.2c-8.6,6.3-17.3,12.3-26,18.4c-8.9,6.1-17.9,12-26.8,18.1
					c-0.8,0.5-1.5,1.6-1.6,2.5c-0.7,6.5-5.4,9.4-10.2,12.5c-1.3,0.8-2,2.6-3,4c2,0.3,4.5,1.6,6.1,0.9c9.3-4.2,18.2-9.1,27.5-13.3
					c11.6-5.2,23.5-9.7,35-15c4.5-2.1,5.8,1.4,7.3,3.5c0.6,0.8-1.5,4.9-3.2,5.7c-13.1,6.2-26.4,11.9-39.5,18
					c-10.1,4.7-20.1,9.7-30.2,14.5c-1.2,0.6-2.4,1.7-3.7,1.9c-4.4,0.6-6.8,1.6-4.5,7c0.6,1.5-2.7,4.7-4.4,7c-1.7,2.3-5.2,4.8-5,6.8
					c1,8-4.8,8.5-9.8,9.6c-6.9,1.5-8.2,3.5-6.8,10c1.6,7,2.7,14.2,3.5,21.4c2.8,26.1,5.6,52.2,16,76.8c1.7,4,3.5,8,4.1,12.2
					c0.3,2-1.6,5.8-3.3,6.3c-1.7,0.6-5.5-1.3-6.4-3.1c-3-5.9-4.9-12.4-7.6-18.4c-7.8-17.5-9.8-36.5-12.5-55
					c-1.5-10.4-2.4-21.1-4-31.6c-0.4-2.4,1.5-5.2,2.4-7.7c0.3-0.9,0.7-1.7,1-2.6c-1-0.2-2.1-0.7-3-0.4c-4.9,1.8-9.7,3.8-15,1.3
					c-0.7-0.3-2.1,0.9-3.1,1.5c0.5,0.7,0.9,2,1.6,2.2c5.5,1.7,5.9,6.9,6.8,11.1c2.9,13.9,5.3,27.9,7.6,41.9c0.3,2-1.3,4.3-1.1,6.4
					c0.5,5.6,2.2,11.1,2.3,16.7c0.1,8.3-0.2,16.6-1.4,24.8c-0.4,2.6-4.3,6.8-6.2,6.6c-3.2-0.3-5.5-3.7-5-8
					c0.7-5.9,1.4-11.9,1.2-17.9c-0.3-7.7-1.7-15.4-2.4-23.1c-0.6-6-0.5-12.1-1.4-18.1c-1.4-9.3-3.3-18.5-5-27.7
					c-0.1-0.7-0.8-1.5-1.4-2c-5-4.2-10-8.5-15.2-12.5c-0.6-0.4-2.5,0.2-3.4,0.9c-2.3,1.9-4.1,4.3-6.4,6.2c-3.3,2.6-6.7,3.9-10-0.3
					c-2.1-2.8-4.3-5.5-6.8-7.9c-1.1-1.1-4-2.2-4.5-1.7c-1.4,1.4-3.3,4.7-2.8,5.3c4.1,4.8,0,8.6-1.4,12.3
					c-11.3,28.9-22.9,57.8-34.6,86.6c-4.3,10.7-9.3,21.1-13.7,31.8c-1.5,3.6-3.8,5.8-7.4,4.1c-3.3-1.6-3.7-4.9-2.2-8.5
					c14.1-34.4,28.2-68.7,42.1-103.2c1.4-3.4,2.8-6.8-0.9-11.2c-2.4-2.7-0.6-9-0.7-13.7c0-1.4-0.2-2.9-0.3-4.3
					c-1.2,0.6-2.6,1-3.6,1.9c-7.1,6.5-13.9,13.3-21.2,19.6c-1.3,1.2-4.2,1.5-5.9,0.9c-0.9-0.3-1-3.3-1.4-5.1c-0.5-2.1-1-4.2-1.5-6.3
					c-1.3,1.1-3,2-4,3.3c-16.4,21.1-32.7,42.3-49.1,63.4c-1.3,1.7-3.5,3.5-5.5,3.8c-4.6,0.6-7-2.9-4.5-6.7
					c7.2-10.6,14.4-21.3,22.4-31.3c9.3-11.8,19.3-23,29.1-34.3c2.4-2.8,5.2-5.7,8.5-7c5.7-2.3,8-6.4,10.3-11.5
					c1.6-3.6,5.2-6.2,7.8-9.4c0.8-0.9,1-2.3,1.4-3.5c-1.2-0.2-2.6-1-3.5-0.6c-3.4,1.4-6.6,3.7-10.1,4.7c-2.2,0.6-4.8-0.5-7.3-0.8
					c0.5-2.4,0.3-5.8,1.8-7.2c5.6-4.9,9-12.8,17.6-14.2c0.8-0.1,1.9-2,1.8-2.9c-0.1-0.8-1.6-1.8-2.7-2c-7.5-1.4-15-2.7-22.5-3.8
					c-0.7-0.1-2.5,1.1-2.4,1.5c1,7-4.8,8.1-9,9.6c-12.9,4.7-26.1,8.5-39.1,13c-3.7,1.3-6.6,1-7.7-2.5c-1.1-3.2-0.1-6.5,4-7.8
					c7.3-2.4,14.4-5,21.6-7.6c9.4-3.4,19.6-5.5,27.9-10.6c6.3-3.9,11.3-9.3,19.4-8.5c0.5,0,1.8-1.4,1.7-1.6c-0.4-0.9-1.2-2-2-2.2
					c-4.5-1-9.1-1.7-13.6-2.4c-1-0.2-2.4,0.4-3.1-0.1c-1.9-1.4-3.6-3.2-5.3-4.8c1.8-1.8,3.6-5,5.5-5c5.7-0.2,11.4,0.9,17.1,1.3
					c1.3,0.1,2.6-0.5,4-0.8c-0.5-1-0.7-2.4-1.6-3c-7.5-5.3-14.8-10.8-22.7-15.5c-14.7-8.7-29.8-17-44.7-25.4
					c-6.5-3.6-7.5-6.7-2.6-9.9c1.9-1.2,6-0.5,8.4,0.7c11,5.7,21.9,11.7,32.5,18c8.5,5.1,16.6,10.9,25,16.4c1.5,1,3,2.2,4.7,2.4
					c1.4,0.2,3-0.8,4.4-1.3c-0.8-1-1.6-2.1-2.3-3.1c-1.4-2.2-5.7-3.2-2.8-7c2.3-3,4.8-4.9,8.8-2.4c1.8,1.1,3.9,1.8,5.9,2.5
					c0.8,0.3,1.8,0.1,2.8,0.1c-0.1-1,0-2.2-0.5-3c-0.4-0.9-1.9-1.4-2.1-2.3c-0.4-2.3-1.2-5.1-0.2-6.8c0.7-1.2,4.6-1.7,6.1-0.9
					c6.1,3.3,11.8,7.3,17.7,11c0.8,0.5,1.8,0.7,2.7,1c0.3-1.1,0.9-2.3,0.9-3.4c0-0.6-0.9-1.4-1.6-1.8c-15.5-10.8-21.7-28.6-32.5-43
					c-9.2-12.3-17.4-25.3-25.6-38.3c-0.9-1.5-0.2-5.3,1.1-6.7c2.8-2.8,6.3-1.8,8.5,1.4c7.5,10.8,14.9,21.7,22.2,32.7
					c6.2,9.3,12.2,18.6,18.2,28c1.3,2.1,2.1,4.7,3.2,6.9c0.5,0.9,1.4,1.5,2.1,2.2c0.6-0.8,1.6-1.4,1.8-2.3c1.4-4.8,4.2-5.7,7.7-2
					c2.1,2.3,3.6,5.3,5.5,7.8c0.8,1,2.1,1.7,3.1,2.5c0.5-1.3,1.3-2.5,1.5-3.8c1-7.3,1.7-14.5,2.6-21.8c0.2-1.5,0.7-3.4,1.8-4.3
					c1.6-1.3,4.2-3.1,5.7-2.5c1.7,0.7,3.8,3.5,3.8,5.3c-0.1,9.3,5,16.2,9.7,23.3c0.3,0.5,3.9,0,4.3-0.8c3.7-8,10.1-14.7,10.5-24.3
					c0.1-2.7,1.8-5.8,6.1-5.2c3.9,0.6,4.9,2.7,5.2,6.3c0.4,5,1.9,9.9,2.4,14.8c0.4,4.1-0.2,8.2,0.2,12.3c0.2,2,1.8,3.9,2.8,5.8
					c0.9-1.6,1.8-3.1,2.7-4.7c3.7-6.7,7.2-13.6,11.4-20c1.2-1.8,4.9-2,7.5-3c0.6,2.4,1.3,4.8,1.9,7.2c0,0.1-0.4,0.3-0.4,0.4
					c0.3,2,0.6,4,1,6.1c1.2-1.7,3.2-3.3,3.3-5c0.5-9.8,4.4-18.7,9.3-26.6c7.9-12.8,17.2-24.7,26.1-36.8c3.2-4.4,6.7-2.9,9,0.8
					c0.8,1.4,0.4,4.8-0.8,5.9c-16.2,15.9-26.5,35.3-33.5,56.6c-1.2,3.7-3.3,7.5-3.3,11.2c0,6.1-2.4,9.1-8,10.9
					c-1.1,0.4-1.3,3.9-1.9,6c1.4-0.4,2.8-0.6,4.1-1.2c6.2-3,7.4,0,9.4,7.3c0.7,2.6,1.4,5.3,2.1,7.9c1.6-2.5,3.2-5,4.8-7.5
					c2.7-4.4,4.8-9.3,8.2-13.1c15.7-17.4,33.4-32.5,52.9-45.4c8.2-5.5,16.8-10.4,25.4-15.2c2.1-1.2,5.2-1.5,7.6-1.2
					c1.5,0.2,3,2.3,3.8,3.9c0.4,0.7-0.5,2.8-1.4,3.4c-5.7,3.6-11.6,6.8-17.3,10.3c-16.5,10.1-32.3,21-47.1,33.6
					c-8.4,7.1-15.6,14.9-21.3,24.2c-3.6,5.9-7.2,11.8-9.9,18.1c-0.8,1.7,1.4,4.7,2.2,7.1c1.3-1.1,2.6-2.1,3.9-3.2
					c2.6-2.3,4.9-4.8,7.7-6.8c11.7-8.3,23.6-16.6,35.5-24.7C983,949.8,987.1,947.4,991.8,944.8"/>
				<path class="st7" d="M947,1083.5c13.5,22.9,28.6,44,47.8,61.9c1.9,1.8,5.9,4,1.9,6.8c-2,1.4-6.9,1.7-8.3,0.3
					c-9.4-9.2-18.9-18.4-26.9-28.7c-9.5-12.1-19-24.5-25.7-38.2c-6.1-12.5-16.4-24-14.9-39.4c0.3-3.4,3.2-6.7,5.4-9.7
					c0.5-0.7,3.5-0.4,4.4,0.5c1.3,1.2,2.9,3.8,2.5,5.1c-3.3,8.7,1,16,4.1,23.4C939.9,1071.7,943.6,1077.3,947,1083.5z"/>
				<path class="st7" d="M855,842.3c4.7-1,6.2,0.7,6.1,5.2c-0.2,23-0.1,46-0.1,69c0,0.8,0.3,1.9-0.1,2.5c-1.7,2.3-3.6,4.5-5.4,6.7
					c-2-2.2-5.7-4.5-5.7-6.7c0-10.5,1-21,1.7-31.5c0.1-1.6,0.5-3.2,0.5-4.8c0-11.2-0.1-22.4,0.1-33.6
					C852.3,847,853.8,844.8,855,842.3z"/>
			</g>
		</g>
		<g id="Dots">
			<path class="st0" d="M925.1,939.5c-5.3-1.1-8.4-4.4-9.9-9.4c-0.1-0.5-0.4-0.9-0.6-1.3c-0.4,0.5-1.1,1-1.1,1.5
				c0,4-5.3,7.8-8.8,8.4c-2.9,0.4-4.8-1.8-6.2-3.9c-3.7-5.8-1.5-11.7,4.1-14.2c2.5-1.1,5.8-0.8,8.7-0.7c0.8,0,1.4,2,2.1,3
				c0.3,0.4,0.6,0.9,0.8,1.4c0.3-0.4,0.8-0.8,0.9-1.3c1.1-5.1,4-8.2,9.1-9.4c1.9-0.4,3.7-1,5.6-1.1c1.4-0.1,3.1-0.1,4.2,0.6
				c2.5,1.5,3.9,4,4.2,6.8c0.4,4.1,0.2,8.3-1.7,12.2c-1.9,3.9-5.6,5-9,6.6C926.9,939.1,926.1,939.2,925.1,939.5z"/>
			<path class="st0" d="M816.8,1025.1c-2.3,1.2-3.6-0.7-4.9-1.6c-4-2.8-6.2-7.1-6-11.9c0.1-4.8,2.7-8.5,7.1-10.7
				c1.2-0.6,1.7-1.1,0.6-2.6c-1.1-1.5-2-3.7-1.7-5.3c0.4-2.3-0.6-3.1-2.1-3.8c-3.7-1.8-4.3-5.5-3.5-8.8c0.9-3.4,6.1-6.1,9.5-4.9
				c0.8,0.3,1.5,1.2,1.8,2c0.7,1.9,2.3,3.6,0.5,5.9c-0.9,1.1,0.4,2.6,2,2.9c3.5,0.5,5.1,3,4.1,6.3c-0.4,1.5-1,2.9-1.6,4.3
				c-0.8,1.8-0.5,2.5,1.3,2.5c2.5,0,3.2,2.1,4,3.6c1,1.9,2,4.2,1.8,6.2c-0.6,5.5-2.6,10.6-8.1,13.4
				C820.1,1023.5,818.5,1024.3,816.8,1025.1z"/>
			<path class="st0" d="M923.3,1007.2c-1.1,1.9-2,3.8-3.2,5.4c-1.5,1.9-1.5,1.8,0.5,3c0.5,0.3,0.9,1.8,0.6,2.2c-1.5,2.1-3.2,4-5,5.8
				c-0.4,0.4-2.1,0.1-2.5-0.4c-0.6-0.8-1.1-2.2-0.9-3.2c0.1-0.9,1.2-1.6,1.8-2.4c0.2-0.3,0.4-1.1,0.3-1.2c-0.3-0.3-1.1-0.6-1.3-0.4
				c-2.7,2.2-5.2,1.2-7.3-0.7c-2-1.8-4.1-3.5-4.9-6.6c-0.7-2.8-1.6-5.7-0.7-8.4c1.6-4.7,4.4-8.6,9.8-9.4c1.9-0.3,3.8-0.8,5.7-0.9
				c3.5-0.1,5.8,1.6,7,4.9c0.8,2.2,1.1,2.3,2.7,0.7c0.8-0.8,1.8-1.9,2.8-2c2.3-0.3,4.7-0.2,7,0c0.5,0,1.4,1.2,1.4,1.8
				c0.1,2.6,0.5,5.5-0.4,7.8c-1.8,4.6-7.1,5.5-10.8,2.2C924.8,1004.5,924,1004.9,923.3,1007.2z"/>
			<path class="st0" d="M885,1030.8c0.9-5.2,3-9.5,8.2-11.5c0.8-0.3,1.8-0.5,2.7-0.6c2.2-0.1,4.4,0.1,6.6-0.1c2.6-0.2,4,1,5,3.2
				c3.1,6.7,1.2,12.3-3.1,17.7c-0.5,0.6-0.5,1.8-0.3,2.6c0.6,1.7,1.7,3.3,2.2,5c0.9,3.3-1.8,8.8-5,10.6c-1.3,0.8-2.7,1.5-4.1,2.1
				c-1.2,0.5-2.3,0.3-3.4-0.7c-2.6-2.1-4.5-4.9-4.9-7.9c-0.3-1.9,1.1-4.3,2.4-6.1c1-1.4,1-2.2-0.1-3.2c-1.1-1-2.7-1.9-3.3-3.1
				C886.5,1036.3,885.9,1033.5,885,1030.8z"/>
			<path class="st0" d="M893.5,962.8c-1.1,0-2.1,0.4-2.8,0.1c-3.6-1.6-5.1-4.9-5.7-8.4c-0.6-3.4,2-5.6,4.4-7.6
				c2-1.7,4.4-0.6,6.7-0.9c2-0.2,3.5,0.1,4.6,2.2c0.7,1.3,2,1.8,2.9-0.1c0.2-0.3,0.7-0.5,1-0.7c4.2-2.6,8.9-3.4,13.6-2.5
				c1.5,0.3,3.2,2.5,3.9,4.3c3.3,7.7-0.8,16.3-7.8,19.5c-5.2,2.4-5.4,3.4-10.6-1.8c-1.4-1.4-3-2.7-3-5.2c0-1.1-1.1-2.2-2.7-1.2
				C896.6,961.4,895.1,962.1,893.5,962.8z"/>
			<path class="st0" d="M862.5,1003.3c3,0.6,3.3,0.3,2.4-2.5c-0.6-1.7,0-2.9,1.6-3.5c1.6-0.7,3.2-0.7,4,1.3c0.2,0.5,0,1.3-0.3,1.8
				c-0.7,1.1-0.9,1.9,0.2,3c2.4,2.6,2.8,7.5,0.7,10.1c-1.3,1.6-1.2,2.8,0,4.1c7.2,7.9,0.9,21.3-7.2,23.4c-2.5,0.7-4.6,1.2-6.8-0.2
				c-2.9-1.9-5.1-4.4-5.7-8c-0.2-1-0.7-2-0.9-3c-0.6-4.7,3.3-11.9,9.5-12.5c1.3-0.1,1.7-0.7,1.1-1.9c-1.1-2.3-1.4-5-4.1-6.5
				c-2.5-1.3-1.1-3-0.2-4.7C858.3,1001.4,859.8,1001.1,862.5,1003.3z"/>
			<path class="st0" d="M814.4,1050.5c-2.5-4.3-1.7-7.3,0.9-11c3.7-5.4,9.3-7.1,15.5-6.7c2.8,0.2,4,2.7,4.9,5c0.6,1.5,1.3,1.7,2.4,1
				c2.4-1.6,5.1-1,7.7-1c1.4,0,3.4,3.8,3,5.3c-1,3.5-2.8,6.3-6.2,8.1c-1.3,0.7-2,0.7-3-0.3c-3.2-3.2-3.2-3.1-5.2,0.9
				c-1.6,3.2-4.6,4.9-7.8,5.9c-1.5,0.5-2.7,2-4.7,1c-3.1-1.5-5.3-3.9-7.2-6.5C814.4,1051.8,814.5,1051.2,814.4,1050.5z"/>
			<path class="st0" d="M868.4,1098c-3.1,1.8-6.1,3.5-9.2,5.1c-0.4,0.2-1.1,0.1-1.5-0.1c-3.5-2.2-7.1-4.5-8.5-8.8
				c-2.6-8.1,1.2-15.3,9.4-17.3c2.7-0.7,5.7-1,8.5-0.8c1.1,0.1,2.4,1.5,3.2,2.7c1.8,2.6,3.2,5.5,2.7,8.6c-0.6,3.1-2,5.9-3.2,8.9
				C869.5,1096.8,868.9,1097.3,868.4,1098z"/>
			<path class="st0" d="M804.1,919.6c-1.5-4.3-2.2-8.4-0.1-12.6c1.2-2.5,6.8-6.3,9.5-6.3c2,0,3.9,0,5.9,0c4.1,0,5.6,1.2,6.8,5.1
				c1.6,5.2,0.7,10-2.3,14.4c-2.7,3.9-6.5,6.4-11.5,6.3c-1.1,0-2.5-0.3-3.2-0.9C807.4,923.7,805.9,921.6,804.1,919.6z"/>
			<path class="st0" d="M892,990.9c-1.2,4.1-4.3,6-7.6,7.8c-0.9,0.5-2.2,0.4-2.9,1.1c-1.6,1.4-3,0.5-4.2-0.3
				c-3.6-2.4-6.2-5.1-7.2-9.9c-0.6-3.1-0.1-5.6,0.9-7.9c2.8-6.4,12-8.5,17.6-7.1c0.9,0.2,1.8,1.1,2.3,1.9c2.4,4.2,3.3,8.5,1.2,13.2
				C892,989.9,892.1,990.4,892,990.9z"/>
			<path class="st0" d="M772.1,972.5c-3.6-3.7-4-10.4-1.4-14.8c3.7-6.3,9.7-7.4,16.2-7.1c1,0,2.2,1.3,2.8,2.3
				c2.4,4,3.9,8.2,1.9,12.9c-1.6,3.8-3.7,7.2-7.6,8.9c-1.9,0.8-3.8,1.9-5.7,1.9c-1.4,0-2.9-1.4-4.2-2.2
				C773.4,974,772.9,973.2,772.1,972.5z"/>
			<path class="st0" d="M838.4,1006.5c-6-5.6-5.6-16.6,2.4-20.7c3.4-1.8,7.2-2.6,11.1-2.1c2.2,0.3,3.4,1.8,4.2,3.6
				c2.5,5.6,1.5,11-1.4,16.2c-1.7,3-4.8,3.7-7.5,5.2C843.4,1010.9,841,1009,838.4,1006.5z"/>
			<path class="st0" d="M820.8,1084.5c-1,2.5-1.7,5-2.9,7.2c-2.1,3.9-6.3,4.9-10,6.4c-0.8,0.3-2.2-0.2-3-0.7
				c-5.7-3.5-7.9-8.7-7.2-15.3c0.4-3.4,4.8-8.1,8.5-8.9c2.2-0.5,4.6-0.6,6.9-1c3.4-0.6,5.5,1.2,6.6,4.1
				C820.6,1078.9,821.8,1081.4,820.8,1084.5z"/>
			<path class="st0" d="M820.5,935.9c2.7,3.8,0.4,7.1-0.7,10.4c-1.8,5.8-7,7.4-12,9c-1.3,0.4-3.6-1.1-5-2.3c-4-3.1-5.6-7.5-5-12.4
				c0.5-4.4,3.2-7.7,7.2-9.7c3.8-1.9,7.9-0.8,11.9-0.9C818.4,930.1,820.2,933.4,820.5,935.9z"/>
			<path class="st0" d="M752.2,960.5c3.4,0,6.9-0.7,9.7,0.3c1.7,0.6,2.9,3.8,3.3,6.1c0.8,4.7-0.2,9.2-3.1,13.1
				c-1,1.3-2.5,2.3-3.9,3.2c-1.8,1.1-3.7,2.3-5.7,2.5c-1.4,0.2-3.1-1.1-4.5-1.9c-6-3.7-6.2-9.8-5.1-15.6
				C743.7,964,747.4,961.2,752.2,960.5z"/>
			<path class="st0" d="M972.9,971.9c4.2-0.3,5.1,1.4,6.4,5.1c0.1,0.3,0.2,0.5,0.3,0.8c2.4,7.3-1.7,15.2-9.2,17.8
				c-1.2,0.4-2.3,1.1-3.6,1.2c-3,0.4-5.2-1.4-6.6-3.5c-2.1-3-4-6.3-3.6-10.3c0.6-5.9,5.2-10.6,10.9-11.1
				C969.2,971.8,971,971.9,972.9,971.9z"/>
			<path class="st0" d="M859.5,968.8c1.8-0.2,2.7-0.9,2.7-2.8c-0.1-4.8,1.5-6.5,6.2-6.8c2.2-0.1,0.5-1.3,0.4-1.7
				c-0.5-1.2-1.5-2.3-2-3.5c-1.1-3,0.2-5.6,2.9-7.8c2.1-1.7,4.3-1.7,6.6-1.6c2.3,0.2,4.1,4.4,3.2,6.9c-1.1,2.9-2.1,5.6-5.4,6.8
				c-0.9,0.4-1.9,1.7-0.6,3.1c0.4,0.5,0.4,1.6,0.3,2.3c-0.5,2.5-1,5-3.7,6.1c-1.7,0.7-2.3,2.1-2.1,3.6c0.7,4.6-2.8,7.8-7.1,9.1
				c-0.8,0.3-2.3-0.8-3.1-1.6C854.1,977.1,854.8,971.5,859.5,968.8z"/>
			<path class="st0" d="M873,925.1c-0.7-5.7,5.3-10.4,10.1-10.4c5.2-0.1,8.4,2.2,9.6,7.3c0.3,1.5-0.3,3.3-0.9,4.9
				c-1.8,4.9-5.7,7.6-10.5,9.1c-0.5,0.1-1.2-0.1-1.6-0.4C875.7,933.4,873,930.2,873,925.1z"/>
			<path class="st0" d="M873.1,1058.7c-2,1-3.2,2.3-2.8,4.6c0.3,1.9-0.4,3.5-1.3,5.1c-1,1.8-2.5,2.5-4.5,2.4c-1.9,0-3-1-3.7-2.5
				c-1.4-3.3-1.5-4.4,1.4-7.3c0.3-0.3,0.9-0.6,1.3-0.6c2.3,0,1.5-1,0.9-2.2c-3.1-5.3-1.5-10.2,4.2-12.1c2-0.7,4.6-1.1,6,0.7
				c1.5,2,3.3,4.4,1.3,7.4C874.9,1055.7,874.1,1057.2,873.1,1058.7z"/>
			<path class="st0" d="M942.4,992.7c1.5-3.7,4.5-4.8,7.9-5.3c1.7-0.2,3.9-0.8,5.2,0.9c1.8,2.2,3,5,2.4,7.8c-1.1,4.7-4.3,7.8-9,9.1
				c-0.5,0.1-1.2,0-1.7-0.2c-3.9-1.7-5.1-5.2-5.9-8.9C941,995.1,941.9,993.9,942.4,992.7z"/>
			<path class="st0" d="M836.7,970.5c-2.8-5-2.4-8.8,2-12.1c2.7-2.1,6-2.5,9.3-1.7c0.9,0.2,1.9,1.5,2.3,2.5c2.5,6.9,0.6,10.6-6,14.1
				C840.4,975.4,838.8,972.6,836.7,970.5z"/>
			<path class="st0" d="M911.3,1078c1.1,8.4-2.1,10.7-8.6,13.3c-0.3,0.1-0.8,0.1-1.1,0c-2.3-0.6-5.6-5.3-5.9-7.8
				c-0.4-3.6,0.8-6.3,3.7-8.2c2.7-1.9,6-2.1,9-1.5C910.1,1074.1,911.3,1075.8,911.3,1078z"/>
			<path class="st0" d="M950.6,972.2c-2.2,1.4-4.3,2.8-6.4,4.1c-0.5,0.3-1.6,0.3-1.9,0c-1.6-1.5-3.5-3-4.4-4.9
				c-2.4-5-1.1-8.8,3.5-11.7c0.7-0.4,1.7-0.4,2.5-0.5c1.1-0.1,2.3,0,3.4,0c4.1,0,6.8,3.5,5.6,7.5
				C952.3,968.6,951.4,970.3,950.6,972.2z"/>
			<path class="st0" d="M827.1,930.7c-0.6-1.4-1.5-2.7-1.6-4c-0.4-4.5,3.4-8.4,7.9-8.4c4.5,0,7.8,2.5,7.2,6.6
				c-0.4,2.6-0.6,6.3-4.3,7.5c-1.1,0.4-2.2,1-3.3,1.3C830.1,934.6,828.8,932.4,827.1,930.7z"/>
			<path class="st0" d="M766.8,997.8c-1.2,1.4-2.2,2.9-3.5,3.7c-4.1,2.4-8.9-0.1-9.6-4.8c-1.1-6.8,4.2-10.5,10.3-9.2
				c3.1,0.6,4.8,4.9,3.5,8.1C767.1,996.2,767,996.9,766.8,997.8z"/>
			<path class="st0" d="M807.6,1050.5c-0.4,3.5-2.1,5.9-4.9,7.4c-3.7,2-7.6,0-8.7-4.1c-1.9-7.2,4.6-11.4,10.8-9.9
				c1.3,0.3,2,3.1,2.8,4.8C807.8,1049.1,807.6,1049.7,807.6,1050.5z"/>
			<path class="st0" d="M854.9,950.1c-2.7,1-5.5-0.3-6.6-2.7c-2.4-5.4-1.2-8.4,3.2-11.4c3.6-2.5,8.6-0.7,9.2,3.7
				C861.2,943.4,860.2,948.6,854.9,950.1z"/>
			<path class="st0" d="M778.6,1068.6c-1,3.3-3.7,4.5-6.2,5.9c-0.4,0.2-1.2-0.1-1.6-0.3c-3.1-1.7-4.9-4.5-5.3-8
				c-0.3-3,2.7-6.5,5.8-7.1c4.9-1,7.5,0.6,8.4,5.5C779.8,1065.7,778.9,1067.1,778.6,1068.6z"/>
			<path class="st0" d="M780,997.2c-4.5-5.3-2.3-12,4.3-13.5c2.5-0.5,5.3,0.5,6.2,3.9c0.9,3.4,0.7,6.3-1.7,8.6
				C785.5,999.5,783.6,1000.3,780,997.2z"/>
			<path class="st0" d="M778.6,1024.1c-2.6-4.5-1.2-9.7,3.4-11.2c2-0.7,4.5-0.3,6.7-0.1c0.6,0.1,1.6,1.5,1.6,2.3
				c-0.1,2.8,1.3,5.9-1.3,8.3c-1.6,1.5-3.4,3-5.3,4.2c-0.5,0.3-1.7-0.2-2.4-0.6C780.3,1026.3,779.5,1025.3,778.6,1024.1z"/>
			<path class="st0" d="M936.6,1036.4c1.1,2.1,0.8,5.5-0.9,7.5c-1.1,1.2-2.3,2.3-3.7,3.2c-1,0.6-2.7,1.5-3.3,1.1
				c-1.7-1.3-3.7-3-4.3-4.9c-1.5-4.8,0.6-8.4,5.4-10.2C933.1,1031.7,936,1033.1,936.6,1036.4z"/>
			<path class="st0" d="M865.4,917.7c1.3,6.3-1.5,9.4-6.6,11.1c-1.1,0.4-3.2-0.9-4.1-1.9c-4.1-4.8-2.1-9.6,2.5-11.8
				C860.4,913.6,864.1,914.7,865.4,917.7z"/>
			<path class="st0" d="M903,899.2c3.8,2.2,4.3,7.7,1.3,11.2c-0.6,0.7-1.3,1.5-2.1,2c-3.5,2.2-7.8,0.1-8.7-4.3
				c-1-4.3,2.8-8.9,7.3-8.9C901.4,899.2,902.1,899.2,903,899.2z"/>
			<path class="st0" d="M922,1064.4c1.8-1.9,3.8-3.1,6.4-3.1c2.9,0.1,5.8,3.7,5.1,6.6c-0.8,3.4-2.5,6.1-6,7.4
				c-1.3,0.5-2.2,0.6-3.5-0.3C920.3,1072.5,919.3,1068,922,1064.4z"/>
			<path class="st0" d="M938.4,959.2c-0.8,1-1.5,2-2.4,2.6c-3.6,2.5-7.8,0.9-8.9-3.5c-0.7-2.8-0.1-5.5,2.1-7.3
				c2.4-1.9,5.4-2.4,8.3-1.3c1.7,0.6,2.8,4.8,1.8,7C939.1,957.4,938.8,958.2,938.4,959.2z"/>
			<path class="st0" d="M850,892.1c2.6-3.5,6.1-2.4,9.3-2.2c1.6,0.1,2.7,3.8,2.4,5.9c-0.6,4-3.8,5.7-6.6,7.8c-0.3,0.3-1.4,0-1.8-0.3
				c-1.5-1.5-3.5-2.9-4.2-4.8C848.6,896.7,848.3,894.1,850,892.1z"/>
			<path class="st0" d="M758.1,1014.6c-0.6,4.1-2.9,6.6-6.4,8.2c-2.2,1-3.8-0.6-4.7-1.9c-3.1-4.7-3.3-7.1,1.6-10.8
				c1.6-1.2,4.8-1.2,7-0.5C756.9,1009.8,757.3,1012.6,758.1,1014.6z"/>
			<path class="st0" d="M884.7,1004.2c1,2.2,1.4,3.9,0.3,6.3c-1.2,2.4-2.8,3.4-5,4.1c-1.5,0.4-3.6-0.9-4.4-2.7
				c-1.1-2.4-0.2-6.2,1.8-7.8C878.9,1002.8,883.1,1002.9,884.7,1004.2z"/>
			<path class="st0" d="M910.4,985.9c0-1.7-0.7-3.6,1.2-4.5c1-0.5,2.5-0.8,3.3-0.4c1.3,0.7,1.9,2.3,0.8,3.7
				C913.7,987.2,912.6,988.7,910.4,985.9z"/>
			<path class="st0" d="M839.3,1019.2c-0.6,1.6-1.1,3.1-2,4.4c-1.1,1.4-2.5,0.9-3.3-0.3c-0.6-0.9-0.9-2.1-0.8-3.1
				c0.1-1.9,1.8-1.6,3.1-1.6C837.2,1018.7,838.2,1019,839.3,1019.2z"/>
			<path class="st0" d="M901.1,978.4c0.9,2-0.2,4.9-2.1,5.2c-0.8,0.1-2-0.6-2.5-1.3c-0.5-0.7-0.7-2.2-0.3-2.8
				C897.3,977.7,899,977.3,901.1,978.4z"/>
			<path class="st0" d="M811.3,1038.2c-1.8-2.1-1.9-3.7-0.3-4.9c1.5-1.2,3-0.6,4.3,0.5c0.3,0.2,0.5,0.9,0.4,1
				C814.3,1036,813.9,1038.4,811.3,1038.2z"/>
			<path class="st0" d="M884.3,1047.2c-2.5,0.1-3.3-0.6-3-2.6c0.2-1.8,1.4-2.6,3.1-2.3c0.7,0.1,1.7,0.9,1.8,1.5
				C886.4,1045.2,886,1046.5,884.3,1047.2z"/>
		</g>
	</g>
</g>
</svg>
