<?xml version="1.0" encoding="utf-8"?>
<!-- Generator: Adobe Adobe Illustrator 24.2.0, SVG Export Plug-In . SVG Version: 6.00 Build 0)  -->
<svg version="1.1" xmlns="http://www.w3.org/2000/svg" xmlns:xlink="http://www.w3.org/1999/xlink" x="0px" y="0px" width="2510px"
	 height="1722.6px" viewBox="0 0 2510 1722.6" style="enable-background:new 0 0 2510 1722.6;" xml:space="preserve">
<style type="text/css">
	.st0{fill:#A97D27;}
	.st1{fill:#AEBF95;}
	.st2{fill:#F2BEA0;}
	.st3{fill:#F2DEA0;}
	.st4{fill:#F2E8DF;}
	.st5{fill:#CD9398;}
	.st6{fill:#F2B3B8;}
	.st7{fill-rule:evenodd;clip-rule:evenodd;fill:#CD9398;}
	.st8{fill:#374029;}
</style>
<g id="Comb">
	<path class="st0" d="M1220.3,919.3c0,2.6-0.1,5.2-1.3,7.5c-1.4,2.5-4,4.1-6.5,5.6c-50.3,29.8-100.5,59.6-150.8,89.4
		c-2,1.2-4,2.3-6.3,2.4c-2.5,0.1-4.8-1.2-7-2.4c-51.7-29.6-103.4-59.1-155.1-88.7c-2.3-1.3-4.8-2.8-6.1-5.2c-1.1-2-1.1-4.4-1.1-6.7
		c0.1-58.6,0.2-117.1,0.3-175.7c0-2.9,0.1-6,1.6-8.5c1.4-2.3,3.8-3.7,6.2-5c51.1-29.1,102.1-58.2,153.2-87.4
		c2.1-1.2,4.3-2.4,6.7-2.5c2.6-0.1,5,1.2,7.2,2.5c50.4,28.1,100.8,56.2,151.2,84.3c2.1,1.2,4.2,2.4,5.5,4.4c1.5,2.2,1.6,5,1.6,7.7
		C1221.1,800.4,1221.3,859.9,1220.3,919.3"/>
	<path class="st1" d="M1213.1,915.6c0,2.4-0.1,5-1.3,7.2c-1.3,2.4-3.8,4-6.2,5.4c-48.1,28.5-96.2,57.1-144.3,85.6
		c-1.9,1.1-3.8,2.2-6,2.3c-2.4,0.1-4.6-1.1-6.7-2.3c-49.5-28.3-98.9-56.6-148.4-84.9c-2.2-1.3-4.6-2.7-5.8-5c-1-1.9-1-4.2-1-6.4
		c0.1-56.1,0.2-112.1,0.3-168.2c0-2.8,0.1-5.8,1.5-8.1c1.3-2.2,3.7-3.5,5.9-4.8c48.9-27.9,97.7-55.8,146.6-83.6
		c2-1.1,4.1-2.3,6.4-2.4c2.5-0.1,4.8,1.2,6.9,2.4c48.3,26.9,96.5,53.8,144.8,80.7c2,1.1,4,2.3,5.3,4.2c1.4,2.1,1.5,4.8,1.5,7.4
		C1213.9,801.8,1214,858.7,1213.1,915.6"/>
	<path class="st0" d="M1387.7,1228.1c0,2.6-0.1,5.2-1.3,7.5c-1.4,2.5-4,4.1-6.5,5.6c-50.3,29.8-100.5,59.6-150.8,89.4
		c-2,1.2-4,2.3-6.3,2.4c-2.5,0.1-4.8-1.2-7-2.4c-51.7-29.6-103.4-59.1-155.1-88.7c-2.3-1.3-4.8-2.8-6.1-5.2c-1.1-2-1.1-4.4-1.1-6.7
		c0.1-58.6,0.2-117.1,0.3-175.7c0-2.9,0.1-6,1.6-8.5c1.4-2.3,3.8-3.7,6.2-5c51.1-29.1,102.1-58.2,153.2-87.4
		c2.1-1.2,4.3-2.4,6.7-2.5c2.6-0.1,5,1.2,7.2,2.5c50.4,28.1,100.8,56.2,151.2,84.3c2.1,1.2,4.2,2.4,5.5,4.4c1.5,2.2,1.6,5,1.6,7.7
		C1388.4,1109.2,1388.6,1168.6,1387.7,1228.1"/>
	<path class="st2" d="M1380.5,1224.3c0,2.4-0.1,5-1.3,7.2c-1.3,2.4-3.8,4-6.2,5.4c-48.1,28.5-96.2,57.1-144.3,85.6
		c-1.9,1.1-3.8,2.2-6,2.3c-2.4,0.1-4.6-1.1-6.7-2.3c-49.5-28.3-98.9-56.6-148.4-84.9c-2.2-1.3-4.6-2.7-5.8-5c-1-1.9-1-4.2-1-6.4
		c0.1-56.1,0.2-112.1,0.3-168.2c0-2.8,0.1-5.8,1.5-8.1c1.3-2.2,3.7-3.5,5.9-4.8c48.9-27.9,97.7-55.8,146.6-83.6
		c2-1.1,4.1-2.3,6.4-2.4c2.5-0.1,4.8,1.2,6.9,2.4c48.3,26.9,96.5,53.8,144.8,80.7c2,1.1,4,2.3,5.3,4.2c1.4,2.1,1.5,4.8,1.5,7.4
		C1381.2,1110.5,1381.4,1167.4,1380.5,1224.3"/>
	<path class="st0" d="M698.7,1228.1c0,2.6-0.1,5.2-1.3,7.5c-1.4,2.5-4,4.1-6.5,5.6c-50.3,29.8-100.5,59.6-150.8,89.4
		c-2,1.2-4,2.3-6.3,2.4c-2.5,0.1-4.8-1.2-7-2.4c-51.7-29.6-103.4-59.1-155.1-88.7c-2.3-1.3-4.8-2.8-6.1-5.2c-1.1-2-1.1-4.4-1.1-6.7
		c0.1-58.6,0.2-117.1,0.3-175.7c0-2.9,0.1-6,1.6-8.5c1.4-2.3,3.8-3.7,6.2-5c51.1-29.1,102.1-58.2,153.2-87.4
		c2.1-1.2,4.3-2.4,6.7-2.5c2.6-0.1,5,1.2,7.2,2.5c50.4,28.1,100.8,56.2,151.2,84.3c2.1,1.2,4.2,2.4,5.5,4.4c1.5,2.2,1.6,5,1.6,7.7
		C699.4,1109.2,699.6,1168.6,698.7,1228.1"/>
	<path class="st3" d="M691.5,1224.3c0,2.4-0.1,5-1.3,7.2c-1.3,2.4-3.8,4-6.2,5.4c-48.1,28.5-96.2,57.1-144.3,85.6
		c-1.9,1.1-3.8,2.2-6,2.3c-2.4,0.1-4.6-1.1-6.7-2.3c-49.5-28.3-98.9-56.6-148.4-84.9c-2.2-1.3-4.6-2.7-5.8-5c-1-1.9-1-4.2-1-6.4
		c0.1-56.1,0.2-112.1,0.3-168.2c0-2.8,0.1-5.8,1.5-8.1c1.3-2.2,3.7-3.5,5.9-4.8c48.9-27.9,97.7-55.8,146.6-83.6
		c2-1.1,4.1-2.3,6.4-2.4c2.5-0.1,4.8,1.2,6.9,2.4c48.3,26.9,96.5,53.8,144.8,80.7c2,1.1,4,2.3,5.3,4.2c1.4,2.1,1.5,4.8,1.5,7.4
		C692.2,1110.5,692.4,1167.4,691.5,1224.3"/>
	<path class="st0" d="M1574.6,919.3c0,2.6-0.1,5.2-1.3,7.5c-1.4,2.5-4,4.1-6.5,5.6c-50.3,29.8-100.5,59.6-150.8,89.4
		c-2,1.2-4,2.3-6.3,2.4c-2.5,0.1-4.8-1.2-7-2.4c-51.7-29.6-103.4-59.1-155.1-88.7c-2.3-1.3-4.8-2.8-6.1-5.2c-1.1-2-1.1-4.4-1.1-6.7
		c0.1-58.6,0.2-117.1,0.3-175.7c0-2.9,0.1-6,1.6-8.5c1.4-2.3,3.8-3.7,6.2-5c51.1-29.1,102.1-58.2,153.2-87.4
		c2.1-1.2,4.3-2.4,6.7-2.5c2.6-0.1,5,1.2,7.2,2.5c50.4,28.1,100.8,56.2,151.2,84.3c2.1,1.2,4.2,2.4,5.5,4.4c1.5,2.2,1.6,5,1.6,7.7
		C1575.4,800.4,1575.6,859.9,1574.6,919.3"/>
	<path class="st2" d="M1567.4,915.6c0,2.4-0.1,5-1.3,7.2c-1.3,2.4-3.8,4-6.2,5.4c-48.1,28.5-96.2,57.1-144.3,85.6
		c-1.9,1.1-3.8,2.2-6,2.3c-2.4,0.1-4.6-1.1-6.7-2.3c-49.5-28.3-98.9-56.6-148.4-84.9c-2.2-1.3-4.6-2.7-5.8-5c-1-1.9-1-4.2-1-6.4
		c0.1-56.1,0.2-112.1,0.3-168.2c0-2.8,0.1-5.8,1.5-8.1c1.3-2.2,3.7-3.5,5.9-4.8c48.9-27.9,97.7-55.8,146.6-83.6
		c2-1.1,4.1-2.3,6.4-2.4c2.5-0.1,4.8,1.2,6.9,2.4c48.3,26.9,96.5,53.8,144.8,80.7c2,1.1,4,2.3,5.3,4.2c1.4,2.1,1.5,4.8,1.5,7.4
		C1568.2,801.8,1568.3,858.7,1567.4,915.6"/>
	<path class="st0" d="M1742,1228.1c0,2.6-0.1,5.2-1.3,7.5c-1.4,2.5-4,4.1-6.5,5.6c-50.3,29.8-100.5,59.6-150.8,89.4
		c-2,1.2-4,2.3-6.3,2.4c-2.5,0.1-4.8-1.2-7-2.4c-51.7-29.6-103.4-59.1-155.1-88.7c-2.3-1.3-4.8-2.8-6.1-5.2c-1.1-2-1.1-4.4-1.1-6.7
		c0.1-58.6,0.2-117.1,0.3-175.7c0-2.9,0.1-6,1.6-8.5c1.4-2.3,3.8-3.7,6.2-5c51.1-29.1,102.1-58.2,153.2-87.4
		c2.1-1.2,4.3-2.4,6.7-2.5c2.6-0.1,5,1.2,7.2,2.5c50.4,28.1,100.8,56.2,151.2,84.3c2.1,1.2,4.2,2.4,5.5,4.4c1.5,2.2,1.6,5,1.6,7.7
		C1742.7,1109.2,1742.9,1168.6,1742,1228.1"/>
	<path class="st3" d="M1734.8,1224.3c0,2.4-0.1,5-1.3,7.2c-1.3,2.4-3.8,4-6.2,5.4c-48.1,28.5-96.2,57.1-144.3,85.6
		c-1.9,1.1-3.8,2.2-6,2.3c-2.4,0.1-4.6-1.1-6.7-2.3c-49.5-28.3-98.9-56.6-148.4-84.9c-2.2-1.3-4.6-2.7-5.8-5c-1-1.9-1-4.2-1-6.4
		c0.1-56.1,0.2-112.1,0.3-168.2c0-2.8,0.1-5.8,1.5-8.1c1.3-2.2,3.7-3.5,5.9-4.8c48.9-27.9,97.7-55.8,146.6-83.6
		c2-1.1,4.1-2.3,6.4-2.4c2.5-0.1,4.8,1.2,6.9,2.4c48.3,26.9,96.5,53.8,144.8,80.7c2,1.1,4,2.3,5.3,4.2c1.4,2.1,1.5,4.8,1.5,7.4
		C1735.5,1110.5,1735.7,1167.4,1734.8,1224.3"/>
	<path class="st0" d="M2283.2,919.3c0,2.6-0.1,5.2-1.3,7.5c-1.4,2.5-4,4.1-6.5,5.6c-50.3,29.8-100.5,59.6-150.8,89.4
		c-2,1.2-4,2.3-6.3,2.4c-2.5,0.1-4.8-1.2-7-2.4c-51.7-29.6-103.4-59.1-155.1-88.7c-2.3-1.3-4.8-2.8-6.1-5.2c-1.1-2-1.1-4.4-1.1-6.7
		c0.1-58.6,0.2-117.1,0.3-175.7c0-2.9,0.1-6,1.6-8.5c1.4-2.3,3.8-3.7,6.2-5c51.1-29.1,102.1-58.2,153.2-87.4
		c2.1-1.2,4.3-2.4,6.7-2.5c2.6-0.1,5,1.2,7.2,2.5c50.4,28.1,100.8,56.2,151.2,84.3c2.1,1.2,4.2,2.4,5.5,4.4c1.5,2.2,1.6,5,1.6,7.7
		C2284,800.4,2284.2,859.9,2283.2,919.3"/>
	<path class="st3" d="M2276,915.6c0,2.4-0.1,5-1.3,7.2c-1.3,2.4-3.8,4-6.2,5.4c-48.1,28.5-96.2,57.1-144.3,85.6
		c-1.9,1.1-3.8,2.2-6,2.3c-2.4,0.1-4.6-1.1-6.7-2.3c-49.5-28.3-98.9-56.6-148.4-84.9c-2.2-1.3-4.6-2.7-5.8-5c-1-1.9-1-4.2-1-6.4
		c0.1-56.1,0.2-112.1,0.3-168.2c0-2.8,0.1-5.8,1.5-8.1c1.3-2.2,3.7-3.5,5.9-4.8c48.9-27.9,97.7-55.8,146.6-83.6
		c2-1.1,4.1-2.3,6.4-2.4c2.5-0.1,4.8,1.2,6.9,2.4c48.3,26.9,96.5,53.8,144.8,80.7c2,1.1,4,2.3,5.3,4.2c1.4,2.1,1.5,4.8,1.5,7.4
		C2276.7,801.8,2276.9,858.7,2276,915.6"/>
	<path class="st0" d="M2450.6,1228.1c0,2.6-0.1,5.2-1.3,7.5c-1.4,2.5-4,4.1-6.5,5.6c-50.3,29.8-100.5,59.6-150.8,89.4
		c-2,1.2-4,2.3-6.3,2.4c-2.5,0.1-4.8-1.2-7-2.4c-51.7-29.6-103.4-59.1-155.1-88.7c-2.3-1.3-4.8-2.8-6.1-5.2c-1.1-2-1.1-4.4-1.1-6.7
		c0.1-58.6,0.2-117.1,0.3-175.7c0-2.9,0.1-6,1.6-8.5c1.4-2.3,3.8-3.7,6.2-5c51.1-29.1,102.1-58.2,153.2-87.4
		c2.1-1.2,4.3-2.4,6.7-2.5c2.6-0.1,5,1.2,7.2,2.5c50.4,28.1,100.8,56.2,151.2,84.3c2.1,1.2,4.2,2.4,5.5,4.4c1.5,2.2,1.6,5,1.6,7.7
		C2451.3,1109.2,2451.5,1168.6,2450.6,1228.1"/>
	<path class="st2" d="M2443.4,1224.3c0,2.4-0.1,5-1.3,7.2c-1.3,2.4-3.8,4-6.2,5.4c-48.1,28.5-96.2,57.1-144.3,85.6
		c-1.9,1.1-3.8,2.2-6,2.3c-2.4,0.1-4.6-1.1-6.7-2.3c-49.5-28.3-98.9-56.6-148.4-84.9c-2.2-1.3-4.6-2.7-5.8-5c-1-1.9-1-4.2-1-6.4
		c0.1-56.1,0.2-112.1,0.3-168.2c0-2.8,0.1-5.8,1.5-8.1c1.3-2.2,3.7-3.5,5.9-4.8c48.9-27.9,97.7-55.8,146.6-83.6
		c2-1.1,4.1-2.3,6.4-2.4c2.5-0.1,4.8,1.2,6.9,2.4c48.3,26.9,96.5,53.8,144.8,80.7c2,1.1,4,2.3,5.3,4.2c1.4,2.1,1.5,4.8,1.5,7.4
		C2444.1,1110.5,2444.3,1167.4,2443.4,1224.3"/>
	<path class="st0" d="M2096.3,1228.1c0,2.6-0.1,5.2-1.3,7.5c-1.4,2.5-4,4.1-6.5,5.6c-50.3,29.8-100.5,59.6-150.8,89.4
		c-2,1.2-4,2.3-6.3,2.4c-2.5,0.1-4.8-1.2-7-2.4c-51.7-29.6-103.4-59.1-155.1-88.7c-2.3-1.3-4.8-2.8-6.1-5.2c-1.1-2-1.1-4.4-1.1-6.7
		c0.1-58.6,0.2-117.1,0.3-175.7c0-2.9,0.1-6,1.6-8.5c1.4-2.3,3.8-3.7,6.2-5c51.1-29.1,102.1-58.2,153.2-87.4
		c2.1-1.2,4.3-2.4,6.7-2.5c2.6-0.1,5,1.2,7.2,2.5c50.4,28.1,100.8,56.2,151.2,84.3c2.1,1.2,4.2,2.4,5.5,4.4c1.5,2.2,1.6,5,1.6,7.7
		C2097,1109.2,2097.2,1168.6,2096.3,1228.1"/>
	<path class="st1" d="M2089.1,1224.3c0,2.4-0.1,5-1.3,7.2c-1.3,2.4-3.8,4-6.2,5.4c-48.1,28.5-96.2,57.1-144.3,85.6
		c-1.9,1.1-3.8,2.2-6,2.3c-2.4,0.1-4.6-1.1-6.7-2.3c-49.5-28.3-98.9-56.6-148.4-84.9c-2.2-1.3-4.6-2.7-5.8-5c-1-1.9-1-4.2-1-6.4
		c0.1-56.1,0.2-112.1,0.3-168.2c0-2.8,0.1-5.8,1.5-8.1c1.3-2.2,3.7-3.5,5.9-4.8c48.9-27.9,97.7-55.8,146.6-83.6
		c2-1.1,4.1-2.3,6.4-2.4c2.5-0.1,4.8,1.2,6.9,2.4c48.3,26.9,96.5,53.8,144.8,80.7c2,1.1,4,2.3,5.3,4.2c1.4,2.1,1.5,4.8,1.5,7.4
		C2089.8,1110.5,2090,1167.4,2089.1,1224.3"/>
	<g>
		<g>
			<path class="st0" d="M866,919.3c0,2.6-0.1,5.2-1.3,7.5c-1.4,2.5-4,4.1-6.5,5.6c-50.3,29.8-100.5,59.6-150.8,89.4
				c-2,1.2-4,2.3-6.3,2.4c-2.5,0.1-4.8-1.2-7-2.4c-51.7-29.6-103.4-59.1-155.1-88.7c-2.3-1.3-4.8-2.8-6.1-5.2
				c-1.1-2-1.1-4.4-1.1-6.7c0.1-58.6,0.2-117.1,0.3-175.7c0-2.9,0.1-6,1.6-8.5c1.4-2.3,3.8-3.7,6.2-5
				c51.1-29.1,102.1-58.2,153.2-87.4c2.1-1.2,4.3-2.4,6.7-2.5c2.6-0.1,5,1.2,7.2,2.5c50.4,28.1,100.8,56.2,151.2,84.3
				c2.1,1.2,4.2,2.4,5.5,4.4c1.5,2.2,1.6,5,1.6,7.7C866.8,800.4,867,859.9,866,919.3"/>
			<path class="st4" d="M690.5,721.5c-1,6.9-1.1,14.1-3.4,20.7c-2.3,6.6-7.6,12.8-14.6,13.7c-6.6,0.8-13-3.4-16.5-9
				c-3.5-5.6-4.6-12.3-5.3-18.9c-0.7-7.4-10.2-11.3-17.3-8.9s-12,8.7-16.1,14.9c-4.1,6.2-8.2,12.8-14.7,16.5s-16.2,2.9-19.7-3.7
				c-2-3.9-1.4-8.5-0.3-12.8c2.5-9.4,7.1-18.3,13.4-25.7c-17.1,9.6-34.1,19.2-51.2,28.7c-1.7,0.9-3.4,1.9-4.5,3.5
				c-1.3,1.9-1.3,4.4-1.3,6.7c0,56,0,111.9,0.1,167.9c0,4.3,0.4,9.4,4.2,11.6c50.5,28.9,101,57.8,151.5,86.7
				c3.2,1.8,7.1,3.6,10.2,1.8c49.4-29.3,98.8-58.7,148.2-88c2-1.2,4-2.4,5.1-4.4c1-1.8,1-4,1-6.1c-0.1-56.1-0.1-112.2-0.2-168.2
				c0-4.7-0.5-10.3-4.6-12.6c-21.7-12.1-43.5-24.1-65.2-36.2c-3.4,5.1-10.4,6.6-16.4,5.4c-6-1.3-11.2-4.8-16.2-8.2
				c2.1,7.4,4.2,14.7,6.4,22.1c1.8,6.2,3.6,12.4,3.4,18.8c-0.2,6.4-2.7,13-8,16.7c-10.6,7.3-25.3-0.8-33.4-10.8
				c-8.1-10-14.5-22.6-26.5-27.5c-1.6-0.6-3.4-1.1-5-0.4C691.5,716.7,690.9,719.2,690.5,721.5"/>
			<path class="st3" d="M689.8,709.4c5.3-3.5,12.5-1.3,17.7,2.3c12.6,8.8,18.8,24.3,30.8,33.8c4.5,3.6,10.9,6.2,15.9,3.3
				c3.3-1.9,5-5.6,5.5-9.3c1.9-12.7-6.9-24.3-9.4-36.8c-0.9-4.5-0.5-10.1,3.5-12.4c3.1-1.8,7.1-0.7,10.2,1.1c3.1,1.8,5.7,4.4,9,5.9
				s7.6,1.6,10-1.1c-27.3-15.3-54.7-30.6-82-45.9c-1.6-0.9-3.7,0-5.3,1c-27.6,15.7-55.2,31.4-82.7,47.1c-2.4,1.4-4.9,2.8-6.4,5.1
				c-5.9,8.8-11.2,18-15.9,27.5c-1.2,2.4-2.4,4.9-2.5,7.5c-0.1,2.7,1.1,5.6,3.5,6.7c3,1.4,6.5-0.4,9.1-2.4
				c5.7-4.5,9.9-10.5,14.3-16.2c4.5-5.7,9.5-11.3,16.1-14.3c6.6-3,15.2-2.8,20.3,2.3c4.1,4,5.2,9.9,6.3,15.5
				c1,5.6,2.4,11.5,6.6,15.3c4.2,3.8,12.3,3.8,14.6-1.4c2.1-4.8,3.5-9.9,4.1-15.2C683.9,721.7,683.9,713.3,689.8,709.4z"/>
		</g>
		<g>
			<g>
				<path class="st5" d="M594.3,869.8c5-1.2,9.8-2.3,14.9-2.5c0.2,0,0.4-0.2,0.7-0.3c-0.3-0.2-0.6-0.6-1-0.7
					c-2.4-1.1-4.9-1.9-7.2-3.2c-4.8-2.6-9.1-5.9-13.2-9.7c-2.5-2.3-5.1-4.6-7.4-7.1c-6-6.4-12.2-12.6-16.9-20
					c-3.4-5.2-4.8-11-3.5-17.1c0.7-3.6,3.6-5,6.8-6c1.7-0.5,3.4-0.7,5.1-1.1c3-0.7,4.9-4,4-7.2c-1.1-4.2-2.7-8.2-3.3-12.5
					c-0.8-5.9,0.2-11.6,6.9-14.8c3.4-1.6,7-3.1,10.7-3.9c2.7-0.6,5.7,0,8.5,0.2c2.8,0.2,5.5,0.7,8.2,1.1c7.2,1,14.3,2.4,20.4,6.7
					c5.7,4,11.9,7.5,17.4,11.8c3.9,3,7.1,7,10.7,10.5c0.4,0.4,0.9,0.5,1.4,0.8c0-0.4,0-0.9-0.1-1.3c-0.7-2.8-1.5-5.6-2.2-8.4
					c-0.3-1.2-0.5-2.4-0.5-3.6c-0.1-3,0-6,0-9c0-7.4,1.3-14.6,3.5-21.6c1-3.2,1.7-6.6,2.8-9.8c1.7-5.3,2.9-10.9,7.3-14.8
					c1.8-1.6,3.9-2.3,6.2-2.6c4.7-0.7,8.6,1.3,12.7,2.9c2.9,1.1,5.9,0.7,8.8,0.3c1.4-0.2,2.9-0.2,4.3-0.4c3.2-0.4,6.4-1.2,9.7-1.3
					c3-0.1,6.1,0.5,9,1.6c4.8,1.9,9,4.7,11.1,9.5c1,2.3,1.5,5,1.8,7.6c0.6,4.5,0.2,9.2,2.8,13.2c1.6,2.5,3.4,4.8,5.1,7.3
					c2.7,3.9,4.1,8.3,4.9,12.9c0.3,1.7,0.5,3.5,0.7,5.3c0.6,5.6-0.6,11-2.8,16.2c-1.8,4.4-3.5,8.9-5.8,13c-1.9,3.6-4.6,6.8-6.9,10.2
					c-0.2,0.2-0.4,0.4-0.5,0.7c-0.1,0.4-0.2,0.9-0.2,1.4c0.5-0.1,1.1,0,1.4-0.3c3.3-3.2,7.7-4.6,11.4-7.3c2.6-1.9,5.2-3.6,7.7-5.6
					c2.4-1.9,4.6-4,6.8-6.1c4.2-4,7.2-8.8,10.1-13.8c4-6.9,7.8-13.9,13-19.9c4.2-4.8,8.9-9,15.3-10.8c5.5-1.5,11.1-2.1,16.9-1.3
					c4,0.6,7.5,2,9.3,5.9c0.6,1.3,0.9,2.8,0.9,4.3c0.1,4,0.1,8,1.8,11.8c0.9,2,2,3.9,4.1,4.8c5.7,2.4,8.1,7.3,9.7,12.7
					c1.8,5.9,0.3,11.5-1.8,17c-2.6,7-6.7,13.2-11.2,19.1c-4.5,5.8-9.7,10.7-15.6,15.1c-7.4,5.5-15.1,10.4-23.4,14.2
					c-5.1,2.3-10.6,4-16,5.7c-4.1,1.3-8.3,2.8-12.6,3.4c-3.7,0.5-7.6-0.1-11.4-0.3c-2-0.1-3.9-0.6-5.8-0.9c-1.3-0.2-2.6-0.5-3.9-0.7
					c-0.5,0-1,0.3-1.5,0.5c0.3,0.3,0.6,0.7,1,0.8c3.4,0.9,6.8,1.7,10.3,2.4c1.3,0.3,2.7,0.4,4,0.4c6.7,0,13.3-0.8,19.7-3
					c8.4-2.8,16.8-5.8,25.2-8.5c2.8-0.9,5.8-1.2,8.7-1.7c2.1-0.3,4.2-0.3,6.3-0.4c1,0,2.1,0.2,3.1,0.5c2.7,0.8,4.1,2.9,4.2,5.8
					c0.3,4.6-1.3,8.8-3.1,13c-2.8,6.7-6.6,12.9-10.9,18.7c-2.1,2.9-4.9,5.3-7.7,7.7c-1.6,1.3-3.7,1.9-5.5,2.9
					c-4.7,2.6-6.9,7-8.6,11.8c-0.8,2.3-1.4,4.6-1.9,7c-1.1,4.3-3.9,7.6-6.5,11c-2.9,3.8-6.8,6.1-11,8.2c-6.1,3.1-12.6,5.2-19.1,7.1
					c-5.1,1.5-10.2,2.7-15.4,3.8c-6.8,1.5-13.7,2.4-20.6,1.7c-4.3-0.5-8.7-1.5-12.9-2.8c-2.9-0.9-5.5-2.7-6.9-5.6
					c-0.7-1.4-1-2.9-0.4-4.6c0.9-2.3,1.6-4.7,4.2-5.7c0.1-0.1,0.3-0.6,0.2-0.7c-0.2-0.2-0.5-0.3-0.8-0.3c-5.9-0.2-11.7,0.2-17.5,2.1
					c-5.3,1.7-9.7,4.9-14.4,7.6c-5.5,3.1-10.5,7-16.6,8.9c-3.8,1.2-7.7,1.5-11.7,0.5c-7.7-2-14.5-5.9-21.1-10.1
					c-2.9-1.8-6.1-2.6-9.3-3.4c-3-0.7-6-1.3-9-2.1c-3.3-0.9-6.2-2.6-8.7-5c-2.8-2.7-5.6-5.4-8-8.4c-3-3.8-5-8.2-5.9-13
					c-0.6-3.4-1.1-6.9-1.4-10.3c-0.6-6.1,0.6-11.9,3.3-17.4c2.3-4.6,5.7-8.4,9.8-11.5c2.1-1.7,4.1-3.6,6.5-5
					C588.6,872.1,591.5,871.1,594.3,869.8"/>
				<path class="st6" d="M574.1,921.2c0.1,0.3,0,0.6,0.2,0.8c2.3,4.8,5.9,8.6,9.7,12.2c4.3,4.1,9.5,5.7,15.2,6.5
					c4.3,0.6,8.3,1.9,12,4.1c4.7,2.8,9.3,5.9,14.5,7.8c3.2,1.1,6.6,2.3,10,2.6c4.5,0.4,8.6-1.7,12.3-4c7-4.1,13.7-8.6,21.1-11.9
					c5.4-2.4,11-3.9,17-3.8c3.5,0.1,7.1,0.2,10.6,0.4c1.9,0.1,3.8-1.3,4.4-3.2c1.3-4.2,1.8-8.5,0.7-12.8c-1.5-5.8-2.8-11.6-4.2-17.3
					c-1.1-4.5-2.2-9-3.5-13.5c-0.4-1.3-0.7-2.8-2.5-3.5c-0.9-0.4-1.8-1.8-1.9-2.9c-0.1-1.2,1.1-1.9,2.4-2.3c3.5-1,5.8,0.3,6.5,3.4
					c0.6,2.6,0.5,5.4,1.1,8c1.5,6.5,3.2,13,5,19.4c1.2,4.1,1.9,8.3,2.2,12.6c0.1,2.5-0.1,5.1-0.7,7.5c-1,3.9-2.7,7.4-6.9,9.1
					c-3.2,1.4-5.8,3.7-7.8,6.6c-0.8,1.1-1,2.3,0.2,3.2c1.2,0.9,2.6,1.9,4.1,2.3c3.7,1,7.5,1.9,11.3,2.4c3.7,0.5,7.4,0.6,11.1,0.3
					c3.3-0.3,6.5-1.2,9.7-2c6-1.4,12.1-2.8,18.1-4.5c4.3-1.3,8.5-3.2,12.8-4.7c3.8-1.4,7.1-3.4,9.9-6.2c3.1-3.2,5.2-7.2,6.7-11.4
					c1.3-3.8,2.2-7.8,3.9-11.4c2.5-5.5,7-9.1,12.4-11.7c3.2-1.6,6.2-3.4,8.1-6.8c1.5-2.7,3.3-5.2,5-7.8c3.6-5.6,6.6-11.4,7.7-18.1
					c0.4-2.4-0.7-4-3.1-3.9c-3,0.1-6.1,0.3-9.1,0.7c-5.8,0.8-11.2,2.8-16.6,5c-3.3,1.3-6.7,2.6-10.1,3.6c-3.5,1-7,1.9-10.6,2.5
					c-4.8,0.8-9.6,1.7-14.4,1.9c-2.9,0.2-5.9-0.6-8.8-1.3c-2.9-0.8-5.7-1.9-8.4-3.1c-4-1.7-7.1-5.2-11.7-5.9c-0.1,0-0.3,0-0.3,0
					c-1.1-0.7-1.9-2.5-1.5-3.7c0.4-1.2,2.7-2.9,3.7-2.8c2,0.3,3.9,0.6,5.9,0.9c4.8,0.6,9.6,1.1,14.4,1.8c1.8,0.2,3.7,0.7,5.5,0.9
					c3.6,0.3,7.4,0.9,10.9,0.3c5-0.9,9.8-2.7,14.7-4.2c8.9-2.7,17.2-6.6,25-11.6c6.7-4.3,13.2-8.9,18.7-14.7c1.4-1.5,2.6-3,3.9-4.6
					c4.1-5,7.7-10.3,10.3-16.2c1.7-3.9,3.1-7.9,3.1-12.2c0-1.9-0.3-3.9-1.1-5.6c-1.3-3-2.5-6-6-7.4c-3.5-1.5-5.8-4.3-7.2-8
					c-1.4-3.6-1.7-7.3-1.7-11.1c0-1.3-0.2-2.7-0.6-3.9c-1.2-3.5-4.6-3.9-7.3-4.2c-3.2-0.4-6.6-0.5-10,0.1c-6,1-11.2,3.5-15.3,7.9
					c-2.2,2.4-4.2,5.2-5.9,7.9c-3.1,4.9-6.1,9.8-9,14.8c-3.1,5.2-6.4,10.1-10.9,14.2c-2.4,2.2-4.8,4.4-7.4,6.3
					c-4.3,3.1-8.7,6.1-13.1,8.9c-4.5,2.8-9.3,5.4-12.5,9.9c-1.5,2.2-3.6,4.3-3.2,7.3c0.3,2.1-0.7,3.5-2.5,4.5
					c-1.7,1-3.5,0.2-3.8-1.7c-0.4-2.7,0.1-5.2,1.4-7.6c2-4,4-8.1,6.2-12c1.4-2.6,3.1-5.1,4.8-7.6c1.7-2.6,3.7-5,5-7.8
					c2.1-4.4,3.8-9.1,5.7-13.6c1-2.4,1.8-4.8,1.7-7.4c-0.2-3.3-0.2-6.7-0.8-9.9c-0.7-3.8-2.1-7.4-4.4-10.6c-1.8-2.4-3.7-4.8-5.2-7.4
					c-2-3.6-2.8-7.6-2.9-11.8c0-1.9-0.2-3.8-0.6-5.7c-1-4.6-3.8-7.6-8.1-9.5c-4.8-2.2-9.6-3.3-14.8-1.9c-2.2,0.6-4.4,0.8-6.7,1.1
					c-1.9,0.2-3.9,0-5.7,0.4c-2.5,0.6-4.8,0-7-0.9c-3.4-1.4-6.7-2.8-10.5-2.7c-2.7,0.1-4.5,1.3-5.4,3.4c-1.4,3.1-2.6,6.4-3.5,9.6
					c-2.2,8.1-5.7,15.8-6,24.4c-0.1,3.6-0.8,7.2-0.6,10.8c0.2,3.4,0.9,6.8,1.7,10.2c1.5,6.9,3.8,13.5,7.2,19.7
					c3.6,6.4,7.5,12.5,12.2,18.2c4.4,5.3,8.3,10.9,12.3,16.4c1.1,1.5,1,4-0.3,5.1c-1.3,1.1-2.6,0.8-4.3-1c-1.4-1.5-2.7-3-3.9-4.6
					c-1.8-2.3-3.6-4.5-5.1-6.9c-1.8-2.8-3.4-5.8-5.2-8.6c-1.9-3.1-4.2-6-5.9-9.2c-2.9-5.5-6.2-10.6-10.9-14.7
					c-1.8-1.6-3.2-3.5-4.9-5.2c-2.6-2.6-5.1-5.3-7.9-7.6c-4.3-3.3-8.9-6.1-13.3-9.2c-4.1-3-8.4-5.8-13.3-7.3c-3.2-1-6.5-1.4-9.8-1.9
					c-4.4-0.7-8.8-1.2-13.1-1.7c-4.4-0.5-8.3,1.2-12.2,2.8c-2.4,1-4.4,2.9-4.3,5.9c0.1,2.3,0.3,4.7,0.9,6.9
					c1.3,4.5,2.6,8.9,2.2,13.7c-0.2,2.5-1.1,4.8-3.1,6.5c-2.3,2-5.2,2.7-8.1,3c-2.7,0.3-4.7,1.4-4.7,3.3c0,2.1,0.2,4.2,0.6,6.2
					c1.2,5.5,4.9,9.4,8.3,13.5c2.3,2.8,4.8,5.5,7.3,8c4.5,4.6,9,9.2,13.8,13.4c5.9,5.1,12.8,8.7,20.2,10.9c3.5,1.1,7,2,10.6,2.8
					c3.7,0.8,7.5,1.2,11.2,1.8c4.1,0.6,8.3,1.4,12.5,1.7c4.1,0.3,8.3,0,12.5,0.1c2.8,0,5.2-0.9,7.6-2.3c0.7-0.4,2.2-0.5,2.8,0
					c0.5,0.4,0.3,1.8,0.2,2.7c0,0.5-0.5,1-0.9,1.3c-2.7,2.1-5.9,3.2-9.1,3.4c-5.5,0.2-11-0.2-16.5-0.2c-0.4,0-0.8,0.2-1.2,0.3
					c-0.8,0.2-1.7,0.6-2.5,0.7c-1.2,0-2.3-0.2-3.5-0.3c-3.2-0.4-6.4-0.9-9.7-1.4c-3.7-0.5-7.3-1.2-11-1.3
					c-6.6-0.3-13.1,0.4-19.6,1.7c-4.1,0.8-7.9,2.1-11.3,4.4c-4,2.6-7.4,5.8-10.5,9.4c-3.4,4.1-5.3,8.7-5.7,13.9
					c-0.2,3.2,0.1,6.5,0.3,9.7C571.6,914.7,572.4,918,574.1,921.2z"/>
			</g>
			<g>
				<g>
					<path class="st7" d="M690,856c0.6,0.8-0.1,1.4-0.6,1.7c-0.4,0.2-1.1,0.1-1.7-0.1c-0.5-0.2-0.8-0.6-1.3-0.9
						c-0.2-0.1-0.6-0.1-0.7,0c-0.1,0.1,0,0.5-0.1,0.7c0,0.6,0,1.1,0,1.7c-0.5-0.1-1-0.1-1.4-0.2c-0.6-0.2-1.2-0.5-1.7-0.7
						c0.3,0.5,0.5,1,0.8,1.6c0.1,0.3,0.2,0.6,0.3,0.9c-0.4,0.1-0.8,0.3-1.2,0.2c-0.6-0.1-1.1-0.4-1.7-0.5c-0.3-0.1-0.5-0.1-0.8-0.1
						c0.1,0.3,0.2,0.7,0.4,0.9c0.6,0.4,1.3,0.7,1.9,1.1c0.5,0.4,0.9,0.9,1.3,1.4c-0.4,0.3-0.7,0.6-1.1,1c-0.1,0.1-0.3,0.2-0.3,0.3
						c-0.4,1.5-1.7,1.8-3,2c-0.2,0-0.4,0.3-0.6,0.5c0.2,0.1,0.5,0.4,0.7,0.4c1,0.1,2.1,0.2,3.1,0.3c0.4,0.1,0.9,0.4,1.1,0.8
						c0.1,0.2-0.2,0.7-0.4,1c-0.5,0.5-1.2,0.8-1.7,1.2c-0.3,0.3-0.5,0.6-0.8,0.9c0.3,0.1,0.7,0.2,1,0.2c1.2,0.1,1.5,0.7,0.9,1.8
						c-1.1,2-2.1,4-3.1,6.1c-0.2,0.3,0.1,0.9,0.1,1.3c0.3-0.3,0.7-0.5,1-0.8c1.3-1.4,2.5-2.8,3.8-4.2c0.2-0.2,0.8-0.3,1-0.2
						c0.3,0.1,0.5,0.6,0.5,0.9c0.1,0.8,0,1.7,0,2.5c0,0.4,0,0.9,0,1.3c0.4-0.3,0.9-0.6,1.2-1c0.6-0.9,1-2,1.7-2.8
						c0.8-0.9,1.6-0.8,2.1,0.3c0.5,0.9,1,1.9,1.4,2.8c0.5,1.1,0.9,1.2,1.6,0.1c0.4-0.7,1.1-1.6,1.8-1.9c1.3-0.5,2,0.6,2.6,1.7
						c0.1,0.3,0.4,0.4,0.6,0.6c0.1-0.1,0.2-0.3,0.2-0.4c0-1.4,0.8-1.8,2.1-1.6c0.6,0.1,1.2,0,1.8,0c0.9,0,1.3-0.3,1.5-1.2
						c0.2-1.1,0.7-1.9,2.1-1.2c0.5,0.2,1.2,0.4,1.8,0.3c0.3-0.1,0.9-0.8,0.8-1c-0.7-1.2,0-1.7,0.9-2c1.1-0.4,1-1,0.4-1.8
						c-0.7-0.8-0.1-1.3,0.5-1.7c0.4-0.2,1-0.2,1.5-0.3c0.4-0.1,0.8-0.2,1.2-0.4c-0.3-0.2-0.7-0.3-1-0.5c-0.6-0.5-1.1-1-1.6-1.5
						c0.5-0.5,1-1,1.6-1.4c0.7-0.4,1.4-0.7,2.1-0.9c0.8-0.2,0.9-0.5,0.2-1c-0.7-0.5-1.6-0.8-2-1.5c-0.7-1.2-1.1-2.7-1.7-4
						c-0.1-0.2-0.3-0.4-0.4-0.6c-0.1,0.1-0.3,0.2-0.4,0.3c-0.7,0.8-1.6,0.7-1.8-0.2c-0.3-1.8-0.3-3.6-0.5-5.4c0-0.5-0.1-0.9-0.2-1.4
						c-0.3,0.3-0.6,0.6-0.8,1c-0.8,1.2-1.5,2.6-2.3,3.7c-0.6,0.9-1.8,0.7-2.1-0.3c-0.5-1.8-0.8-3.7-1.2-5.6c-0.1-0.3,0-0.6,0-0.9
						c-0.3,0.2-0.7,0.4-0.8,0.7c-0.5,0.9-0.7,1.9-1.2,2.7c-1.4,1.9-2.1,1.7-3.5,0.1c-0.5-0.5-0.8-1.2-1.2-1.7
						c-0.2-0.2-0.3-0.5-0.5-0.7c-0.2,0.3-0.6,0.6-0.7,0.9c-0.2,0.8-0.2,1.7-0.3,2.5c-0.2,0.6-0.4,1.5-0.8,1.8
						c-0.7,0.4-1.3-0.2-1.6-1c-0.1-0.2-0.5-0.4-0.7-0.4c-0.2,0.1-0.4,0.4-0.4,0.7C689.8,854.9,689.9,855.3,690,856z M729.6,852.6
						c0.6,0.3,1,0.6,1.3,1c0.1,0.2-0.2,0.8-0.5,1c-2,1.5-4,2.9-6.1,4.3c-2.1,1.4-4.2,2.8-6.2,4.2c-0.2,0.1-0.3,0.4-0.4,0.6
						c-0.2,1.5-1.2,2.2-2.4,2.9c-0.3,0.2-0.5,0.6-0.7,0.9c0.5,0.1,1,0.4,1.4,0.2c2.2-1,4.2-2.1,6.4-3.1c2.7-1.2,5.5-2.3,8.2-3.5
						c1-0.5,1.3,0.3,1.7,0.8c0.1,0.2-0.3,1.1-0.8,1.3c-3,1.5-6.1,2.8-9.2,4.2c-2.4,1.1-4.7,2.2-7,3.4c-0.3,0.1-0.6,0.4-0.8,0.4
						c-1,0.1-1.6,0.4-1.1,1.6c0.1,0.3-0.6,1.1-1,1.6c-0.4,0.5-1.2,1.1-1.2,1.6c0.2,1.9-1.1,2-2.3,2.2c-1.6,0.3-1.9,0.8-1.6,2.3
						c0.4,1.6,0.6,3.3,0.8,5c0.6,6.1,1.3,12.2,3.7,17.9c0.4,0.9,0.8,1.9,1,2.8c0.1,0.5-0.4,1.3-0.8,1.5c-0.4,0.1-1.3-0.3-1.5-0.7
						c-0.7-1.4-1.1-2.9-1.8-4.3c-1.8-4.1-2.3-8.5-2.9-12.8c-0.4-2.4-0.6-4.9-0.9-7.4c-0.1-0.6,0.4-1.2,0.6-1.8
						c0.1-0.2,0.2-0.4,0.2-0.6c-0.2,0-0.5-0.2-0.7-0.1c-1.1,0.4-2.3,0.9-3.5,0.3c-0.2-0.1-0.5,0.2-0.7,0.3c0.1,0.2,0.2,0.5,0.4,0.5
						c1.3,0.4,1.4,1.6,1.6,2.6c0.7,3.2,1.2,6.5,1.8,9.8c0.1,0.5-0.3,1-0.2,1.5c0.1,1.3,0.5,2.6,0.5,3.9c0,1.9-0.1,3.9-0.3,5.8
						c-0.1,0.6-1,1.6-1.4,1.5c-0.7-0.1-1.3-0.9-1.2-1.9c0.2-1.4,0.3-2.8,0.3-4.2c-0.1-1.8-0.4-3.6-0.6-5.4c-0.1-1.4-0.1-2.8-0.3-4.2
						c-0.3-2.2-0.8-4.3-1.2-6.5c0-0.2-0.2-0.3-0.3-0.5c-1.2-1-2.3-2-3.5-2.9c-0.1-0.1-0.6,0-0.8,0.2c-0.5,0.4-0.9,1-1.5,1.4
						c-0.8,0.6-1.6,0.9-2.3-0.1c-0.5-0.6-1-1.3-1.6-1.8c-0.3-0.3-0.9-0.5-1.1-0.4c-0.3,0.3-0.8,1.1-0.6,1.2c1,1.1,0,2-0.3,2.9
						c-2.6,6.7-5.3,13.5-8,20.2c-1,2.5-2.2,4.9-3.2,7.4c-0.4,0.8-0.9,1.4-1.7,0.9c-0.8-0.4-0.9-1.1-0.5-2c3.3-8,6.6-16,9.8-24
						c0.3-0.8,0.7-1.6-0.2-2.6c-0.6-0.6-0.1-2.1-0.2-3.2c0-0.3,0-0.7-0.1-1c-0.3,0.1-0.6,0.2-0.8,0.4c-1.6,1.5-3.2,3.1-4.9,4.6
						c-0.3,0.3-1,0.3-1.4,0.2c-0.2-0.1-0.2-0.8-0.3-1.2c-0.1-0.5-0.2-1-0.4-1.5c-0.3,0.3-0.7,0.5-0.9,0.8
						c-3.8,4.9-7.6,9.9-11.4,14.8c-0.3,0.4-0.8,0.8-1.3,0.9c-1.1,0.1-1.6-0.7-1-1.5c1.7-2.5,3.4-5,5.2-7.3c2.2-2.7,4.5-5.4,6.8-8
						c0.6-0.6,1.2-1.3,2-1.6c1.3-0.5,1.9-1.5,2.4-2.7c0.4-0.8,1.2-1.4,1.8-2.2c0.2-0.2,0.2-0.5,0.3-0.8c-0.3-0.1-0.6-0.2-0.8-0.1
						c-0.8,0.3-1.5,0.9-2.4,1.1c-0.5,0.1-1.1-0.1-1.7-0.2c0.1-0.6,0.1-1.4,0.4-1.7c1.3-1.1,2.1-3,4.1-3.3c0.2,0,0.4-0.5,0.4-0.7
						c0-0.2-0.4-0.4-0.6-0.5c-1.7-0.3-3.5-0.6-5.2-0.9c-0.2,0-0.6,0.3-0.6,0.4c0.2,1.6-1.1,1.9-2.1,2.2c-3,1.1-6.1,2-9.1,3
						c-0.9,0.3-1.5,0.2-1.8-0.6c-0.3-0.8,0-1.5,0.9-1.8c1.7-0.6,3.4-1.2,5-1.8c2.2-0.8,4.6-1.3,6.5-2.5c1.5-0.9,2.6-2.2,4.5-2
						c0.1,0,0.4-0.3,0.4-0.4c-0.1-0.2-0.3-0.5-0.5-0.5c-1-0.2-2.1-0.4-3.2-0.6c-0.2,0-0.6,0.1-0.7,0c-0.4-0.3-0.8-0.7-1.2-1.1
						c0.4-0.4,0.8-1.2,1.3-1.2c1.3,0,2.7,0.2,4,0.3c0.3,0,0.6-0.1,0.9-0.2c-0.1-0.2-0.2-0.6-0.4-0.7c-1.7-1.2-3.5-2.5-5.3-3.6
						c-3.4-2-6.9-4-10.4-5.9c-1.5-0.8-1.8-1.5-0.6-2.3c0.4-0.3,1.4-0.1,2,0.2c2.6,1.3,5.1,2.7,7.6,4.2c2,1.2,3.9,2.5,5.8,3.8
						c0.3,0.2,0.7,0.5,1.1,0.6c0.3,0,0.7-0.2,1-0.3c-0.2-0.2-0.4-0.5-0.5-0.7c-0.3-0.5-1.3-0.7-0.7-1.6c0.5-0.7,1.1-1.1,2-0.6
						c0.4,0.3,0.9,0.4,1.4,0.6c0.2,0.1,0.4,0,0.6,0c0-0.2,0-0.5-0.1-0.7c-0.1-0.2-0.4-0.3-0.5-0.5c-0.1-0.5-0.3-1.2,0-1.6
						c0.2-0.3,1.1-0.4,1.4-0.2c1.4,0.8,2.7,1.7,4.1,2.6c0.2,0.1,0.4,0.2,0.6,0.2c0.1-0.3,0.2-0.5,0.2-0.8c0-0.1-0.2-0.3-0.4-0.4
						c-3.6-2.5-5.1-6.7-7.6-10c-2.1-2.9-4-5.9-6-8.9c-0.2-0.3-0.1-1.2,0.3-1.6c0.7-0.7,1.5-0.4,2,0.3c1.7,2.5,3.5,5.1,5.2,7.6
						c1.4,2.2,2.8,4.3,4.2,6.5c0.3,0.5,0.5,1.1,0.8,1.6c0.1,0.2,0.3,0.3,0.5,0.5c0.1-0.2,0.4-0.3,0.4-0.5c0.3-1.1,1-1.3,1.8-0.5
						c0.5,0.5,0.8,1.2,1.3,1.8c0.2,0.2,0.5,0.4,0.7,0.6c0.1-0.3,0.3-0.6,0.4-0.9c0.2-1.7,0.4-3.4,0.6-5.1c0-0.4,0.2-0.8,0.4-1
						c0.4-0.3,1-0.7,1.3-0.6c0.4,0.2,0.9,0.8,0.9,1.2c0,2.2,1.2,3.8,2.3,5.4c0.1,0.1,0.9,0,1-0.2c0.9-1.9,2.3-3.4,2.4-5.7
						c0-0.6,0.4-1.4,1.4-1.2c0.9,0.1,1.1,0.6,1.2,1.5c0.1,1.2,0.4,2.3,0.5,3.5c0.1,0.9-0.1,1.9,0,2.9c0.1,0.5,0.4,0.9,0.6,1.3
						c0.2-0.4,0.4-0.7,0.6-1.1c0.9-1.6,1.7-3.2,2.7-4.6c0.3-0.4,1.1-0.5,1.7-0.7c0.2,0.6,0.3,1.1,0.4,1.7c0,0-0.1,0.1-0.1,0.1
						c0.1,0.5,0.1,0.9,0.2,1.4c0.3-0.4,0.8-0.8,0.8-1.2c0.1-2.3,1-4.4,2.2-6.2c1.8-3,4-5.7,6.1-8.6c0.7-1,1.6-0.7,2.1,0.2
						c0.2,0.3,0.1,1.1-0.2,1.4c-3.8,3.7-6.2,8.2-7.8,13.2c-0.3,0.9-0.8,1.7-0.8,2.6c0,1.4-0.5,2.1-1.9,2.5c-0.3,0.1-0.3,0.9-0.4,1.4
						c0.3-0.1,0.7-0.1,0.9-0.3c1.4-0.7,1.7,0,2.2,1.7c0.2,0.6,0.3,1.2,0.5,1.8c0.4-0.6,0.8-1.2,1.1-1.7c0.6-1,1.1-2.2,1.9-3
						c3.6-4,7.8-7.6,12.3-10.6c1.9-1.3,3.9-2.4,5.9-3.5c0.5-0.3,1.2-0.4,1.8-0.3c0.3,0,0.7,0.5,0.9,0.9c0.1,0.2-0.1,0.7-0.3,0.8
						c-1.3,0.8-2.7,1.6-4,2.4c-3.8,2.3-7.5,4.9-11,7.8c-2,1.7-3.6,3.5-5,5.6c-0.8,1.4-1.7,2.8-2.3,4.2c-0.2,0.4,0.3,1.1,0.5,1.7
						c0.3-0.3,0.6-0.5,0.9-0.8c0.6-0.5,1.1-1.1,1.8-1.6c2.7-1.9,5.5-3.9,8.3-5.8C727.6,853.8,728.6,853.2,729.6,852.6"/>
					<path class="st7" d="M719.2,884.9c3.1,5.3,6.7,10.2,11.1,14.4c0.4,0.4,1.4,0.9,0.4,1.6c-0.5,0.3-1.6,0.4-1.9,0.1
						c-2.2-2.1-4.4-4.3-6.3-6.7c-2.2-2.8-4.4-5.7-6-8.9c-1.4-2.9-3.8-5.6-3.5-9.2c0.1-0.8,0.8-1.6,1.3-2.3c0.1-0.2,0.8-0.1,1,0.1
						c0.3,0.3,0.7,0.9,0.6,1.2c-0.8,2,0.2,3.7,1,5.4C717.6,882.2,718.4,883.5,719.2,884.9z"/>
					<path class="st7" d="M697.8,828.8c1.1-0.2,1.4,0.2,1.4,1.2c0,5.4,0,10.7,0,16.1c0,0.2,0.1,0.4,0,0.6c-0.4,0.5-0.8,1-1.2,1.6
						c-0.5-0.5-1.3-1-1.3-1.6c0-2.4,0.2-4.9,0.4-7.3c0-0.4,0.1-0.8,0.1-1.1c0-2.6,0-5.2,0-7.8C697.2,829.9,697.5,829.4,697.8,828.8z
						"/>
				</g>
			</g>
			<g id="Dots_1_">
				<path class="st0" d="M714.1,851.4c-1.2-0.2-2-1-2.3-2.2c0-0.1-0.1-0.2-0.2-0.3c-0.1,0.1-0.3,0.2-0.3,0.4c0,0.9-1.2,1.8-2.1,1.9
					c-0.7,0.1-1.1-0.4-1.4-0.9c-0.9-1.3-0.4-2.7,1-3.3c0.6-0.3,1.4-0.2,2-0.2c0.2,0,0.3,0.5,0.5,0.7c0.1,0.1,0.1,0.2,0.2,0.3
					c0.1-0.1,0.2-0.2,0.2-0.3c0.2-1.2,0.9-1.9,2.1-2.2c0.4-0.1,0.9-0.2,1.3-0.3c0.3,0,0.7,0,1,0.1c0.6,0.3,0.9,0.9,1,1.6
					c0.1,1,0,1.9-0.4,2.8c-0.4,0.9-1.3,1.2-2.1,1.5C714.5,851.3,714.3,851.3,714.1,851.4z"/>
				<path class="st0" d="M688.9,871.3c-0.5,0.3-0.8-0.2-1.1-0.4c-0.9-0.7-1.4-1.6-1.4-2.8c0-1.1,0.6-2,1.7-2.5
					c0.3-0.1,0.4-0.3,0.1-0.6c-0.2-0.3-0.5-0.9-0.4-1.2c0.1-0.5-0.1-0.7-0.5-0.9c-0.9-0.4-1-1.3-0.8-2c0.2-0.8,1.4-1.4,2.2-1.1
					c0.2,0.1,0.3,0.3,0.4,0.5c0.2,0.4,0.5,0.8,0.1,1.4c-0.2,0.3,0.1,0.6,0.5,0.7c0.8,0.1,1.2,0.7,1,1.5c-0.1,0.3-0.2,0.7-0.4,1
					c-0.2,0.4-0.1,0.6,0.3,0.6c0.6,0,0.7,0.5,0.9,0.8c0.2,0.4,0.5,1,0.4,1.4c-0.2,1.3-0.6,2.5-1.9,3.1
					C689.7,871,689.3,871.1,688.9,871.3z"/>
				<path class="st0" d="M713.7,867.2c-0.3,0.4-0.5,0.9-0.7,1.3c-0.3,0.4-0.4,0.4,0.1,0.7c0.1,0.1,0.2,0.4,0.1,0.5
					c-0.3,0.5-0.7,0.9-1.2,1.4c-0.1,0.1-0.5,0-0.6-0.1c-0.1-0.2-0.2-0.5-0.2-0.7c0-0.2,0.3-0.4,0.4-0.6c0.1-0.1,0.1-0.2,0.1-0.3
					c-0.1-0.1-0.3-0.1-0.3-0.1c-0.6,0.5-1.2,0.3-1.7-0.2c-0.5-0.4-1-0.8-1.1-1.5c-0.2-0.7-0.4-1.3-0.2-2c0.4-1.1,1-2,2.3-2.2
					c0.4-0.1,0.9-0.2,1.3-0.2c0.8,0,1.4,0.4,1.6,1.2c0.2,0.5,0.2,0.5,0.6,0.2c0.2-0.2,0.4-0.4,0.6-0.5c0.5-0.1,1.1,0,1.6,0
					c0.1,0,0.3,0.3,0.3,0.4c0,0.6,0.1,1.3-0.1,1.8c-0.4,1.1-1.6,1.3-2.5,0.5C714,866.5,713.9,866.6,713.7,867.2z"/>
				<path class="st0" d="M704.8,872.7c0.2-1.2,0.7-2.2,1.9-2.7c0.2-0.1,0.4-0.1,0.6-0.1c0.5,0,1,0,1.5,0c0.6,0,0.9,0.2,1.2,0.8
					c0.7,1.6,0.3,2.9-0.7,4.1c-0.1,0.1-0.1,0.4-0.1,0.6c0.1,0.4,0.4,0.8,0.5,1.2c0.2,0.8-0.4,2-1.2,2.5c-0.3,0.2-0.6,0.3-1,0.5
					c-0.3,0.1-0.5,0.1-0.8-0.2c-0.6-0.5-1-1.1-1.1-1.8c-0.1-0.4,0.3-1,0.5-1.4c0.2-0.3,0.2-0.5,0-0.8c-0.3-0.2-0.6-0.4-0.8-0.7
					C705.1,873.9,705,873.3,704.8,872.7z"/>
				<path class="st0" d="M706.8,856.8c-0.3,0-0.5,0.1-0.7,0c-0.8-0.4-1.2-1.1-1.3-2c-0.1-0.8,0.5-1.3,1-1.8c0.5-0.4,1-0.1,1.6-0.2
					c0.5-0.1,0.8,0,1.1,0.5c0.2,0.3,0.5,0.4,0.7,0c0-0.1,0.2-0.1,0.2-0.2c1-0.6,2.1-0.8,3.2-0.6c0.4,0.1,0.7,0.6,0.9,1
					c0.8,1.8-0.2,3.8-1.8,4.5c-1.2,0.6-1.3,0.8-2.5-0.4c-0.3-0.3-0.7-0.6-0.7-1.2c0-0.3-0.2-0.5-0.6-0.3
					C707.5,856.5,707.1,856.7,706.8,856.8z"/>
				<path class="st0" d="M699.5,866.3c0.7,0.1,0.8,0.1,0.5-0.6c-0.1-0.4,0-0.7,0.4-0.8c0.4-0.2,0.8-0.2,0.9,0.3c0,0.1,0,0.3-0.1,0.4
					c-0.2,0.3-0.2,0.4,0,0.7c0.6,0.6,0.6,1.8,0.2,2.4c-0.3,0.4-0.3,0.7,0,1c1.7,1.8,0.2,4.9-1.7,5.4c-0.6,0.2-1.1,0.3-1.6,0
					c-0.7-0.4-1.2-1-1.3-1.9c0-0.2-0.2-0.5-0.2-0.7c-0.1-1.1,0.8-2.8,2.2-2.9c0.3,0,0.4-0.2,0.3-0.4c-0.3-0.5-0.3-1.2-1-1.5
					c-0.6-0.3-0.3-0.7,0-1.1C698.6,865.8,698.9,865.7,699.5,866.3z"/>
				<path class="st0" d="M688.4,877.2c-0.6-1-0.4-1.7,0.2-2.6c0.9-1.3,2.2-1.7,3.6-1.5c0.6,0,0.9,0.6,1.1,1.2
					c0.1,0.4,0.3,0.4,0.6,0.2c0.6-0.4,1.2-0.2,1.8-0.2c0.3,0,0.8,0.9,0.7,1.2c-0.2,0.8-0.6,1.5-1.4,1.9c-0.3,0.2-0.5,0.2-0.7-0.1
					c-0.7-0.7-0.7-0.7-1.2,0.2c-0.4,0.7-1.1,1.1-1.8,1.4c-0.4,0.1-0.6,0.5-1.1,0.2c-0.7-0.3-1.2-0.9-1.7-1.5
					C688.3,877.5,688.4,877.4,688.4,877.2z"/>
				<path class="st0" d="M700.9,888.3c-0.7,0.4-1.4,0.8-2.1,1.2c-0.1,0-0.3,0-0.3,0c-0.8-0.5-1.6-1-2-2.1c-0.6-1.9,0.3-3.6,2.2-4
					c0.6-0.2,1.3-0.2,2-0.2c0.3,0,0.6,0.4,0.7,0.6c0.4,0.6,0.8,1.3,0.6,2c-0.1,0.7-0.5,1.4-0.7,2.1C701.2,888,701,888.1,700.9,888.3
					z"/>
				<path class="st0" d="M686,846.8c-0.3-1-0.5-2,0-2.9c0.3-0.6,1.6-1.5,2.2-1.5c0.5,0,0.9,0,1.4,0c1,0,1.3,0.3,1.6,1.2
					c0.4,1.2,0.2,2.3-0.5,3.3c-0.6,0.9-1.5,1.5-2.7,1.5c-0.3,0-0.6-0.1-0.7-0.2C686.7,847.7,686.4,847.2,686,846.8z"/>
				<path class="st0" d="M706.4,863.4c-0.3,1-1,1.4-1.8,1.8c-0.2,0.1-0.5,0.1-0.7,0.2c-0.4,0.3-0.7,0.1-1-0.1
					c-0.8-0.6-1.5-1.2-1.7-2.3c-0.1-0.7,0-1.3,0.2-1.8c0.7-1.5,2.8-2,4.1-1.6c0.2,0.1,0.4,0.2,0.5,0.4c0.6,1,0.8,2,0.3,3.1
					C706.4,863.1,706.4,863.2,706.4,863.4z"/>
				<path class="st0" d="M678.5,859.1c-0.8-0.9-0.9-2.4-0.3-3.4c0.9-1.5,2.3-1.7,3.8-1.6c0.2,0,0.5,0.3,0.7,0.5
					c0.6,0.9,0.9,1.9,0.5,3c-0.4,0.9-0.9,1.7-1.8,2.1c-0.4,0.2-0.9,0.4-1.3,0.5c-0.3,0-0.7-0.3-1-0.5
					C678.8,859.4,678.7,859.3,678.5,859.1z"/>
				<path class="st0" d="M693.9,867c-1.4-1.3-1.3-3.9,0.6-4.8c0.8-0.4,1.7-0.6,2.6-0.5c0.5,0.1,0.8,0.4,1,0.8
					c0.6,1.3,0.4,2.6-0.3,3.8c-0.4,0.7-1.1,0.9-1.8,1.2C695.1,868,694.5,867.6,693.9,867z"/>
				<path class="st0" d="M689.8,885.2c-0.2,0.6-0.4,1.2-0.7,1.7c-0.5,0.9-1.5,1.1-2.3,1.5c-0.2,0.1-0.5,0-0.7-0.2
					c-1.3-0.8-1.8-2-1.7-3.6c0.1-0.8,1.1-1.9,2-2.1c0.5-0.1,1.1-0.1,1.6-0.2c0.8-0.1,1.3,0.3,1.5,1
					C689.8,883.8,690.1,884.4,689.8,885.2z"/>
				<path class="st0" d="M689.8,850.6c0.6,0.9,0.1,1.6-0.2,2.4c-0.4,1.3-1.6,1.7-2.8,2.1c-0.3,0.1-0.8-0.3-1.2-0.5
					c-0.9-0.7-1.3-1.8-1.2-2.9c0.1-1,0.7-1.8,1.7-2.3c0.9-0.4,1.8-0.2,2.8-0.2C689.3,849.2,689.7,850,689.8,850.6z"/>
				<path class="st0" d="M673.9,856.3c0.8,0,1.6-0.2,2.3,0.1c0.4,0.1,0.7,0.9,0.8,1.4c0.2,1.1-0.1,2.2-0.7,3.1
					c-0.2,0.3-0.6,0.5-0.9,0.7c-0.4,0.2-0.9,0.5-1.3,0.6c-0.3,0-0.7-0.2-1-0.4c-1.4-0.9-1.4-2.3-1.2-3.6
					C671.9,857.1,672.8,856.5,673.9,856.3z"/>
				<path class="st0" d="M725.3,858.9c1-0.1,1.2,0.3,1.5,1.2c0,0.1,0,0.1,0.1,0.2c0.6,1.7-0.4,3.5-2.1,4.1c-0.3,0.1-0.5,0.2-0.8,0.3
					c-0.7,0.1-1.2-0.3-1.5-0.8c-0.5-0.7-0.9-1.5-0.8-2.4c0.1-1.4,1.2-2.5,2.5-2.6C724.4,858.9,724.8,858.9,725.3,858.9z"/>
				<path class="st0" d="M698.9,858.2c0.4,0,0.6-0.2,0.6-0.7c0-1.1,0.4-1.5,1.5-1.6c0.5,0,0.1-0.3,0.1-0.4c-0.1-0.3-0.4-0.5-0.5-0.8
					c-0.3-0.7,0-1.3,0.7-1.8c0.5-0.4,1-0.4,1.5-0.4c0.5,0,1,1,0.7,1.6c-0.2,0.7-0.5,1.3-1.2,1.6c-0.2,0.1-0.4,0.4-0.1,0.7
					c0.1,0.1,0.1,0.4,0.1,0.5c-0.1,0.6-0.2,1.2-0.9,1.4c-0.4,0.2-0.5,0.5-0.5,0.8c0.2,1.1-0.7,1.8-1.6,2.1c-0.2,0.1-0.5-0.2-0.7-0.4
					C697.6,860.2,697.8,858.9,698.9,858.2z"/>
				<path class="st0" d="M702,848.1c-0.2-1.3,1.2-2.4,2.4-2.4c1.2,0,1.9,0.5,2.2,1.7c0.1,0.3-0.1,0.8-0.2,1.1
					c-0.4,1.2-1.3,1.8-2.5,2.1c-0.1,0-0.3,0-0.4-0.1C702.6,850,702,849.3,702,848.1z"/>
				<path class="st0" d="M702,879.2c-0.5,0.2-0.7,0.5-0.7,1.1c0.1,0.4-0.1,0.8-0.3,1.2c-0.2,0.4-0.6,0.6-1,0.6
					c-0.4,0-0.7-0.2-0.9-0.6c-0.3-0.8-0.4-1,0.3-1.7c0.1-0.1,0.2-0.2,0.3-0.2c0.5,0,0.4-0.2,0.2-0.5c-0.7-1.2-0.4-2.4,1-2.8
					c0.5-0.2,1.1-0.3,1.4,0.2c0.4,0.5,0.8,1,0.3,1.7C702.4,878.4,702.3,878.8,702,879.2z"/>
				<path class="st0" d="M718.1,863.8c0.3-0.9,1.1-1.1,1.8-1.2c0.4-0.1,0.9-0.2,1.2,0.2c0.4,0.5,0.7,1.2,0.6,1.8
					c-0.3,1.1-1,1.8-2.1,2.1c-0.1,0-0.3,0-0.4-0.1c-0.9-0.4-1.2-1.2-1.4-2.1C717.8,864.4,718,864.1,718.1,863.8z"/>
				<path class="st0" d="M693.5,858.6c-0.7-1.2-0.6-2,0.5-2.8c0.6-0.5,1.4-0.6,2.2-0.4c0.2,0.1,0.5,0.4,0.5,0.6
					c0.6,1.6,0.1,2.5-1.4,3.3C694.4,859.8,694,859.1,693.5,858.6z"/>
				<path class="st0" d="M710.9,883.7c0.3,2-0.5,2.5-2,3.1c-0.1,0-0.2,0-0.3,0c-0.5-0.1-1.3-1.2-1.4-1.8c-0.1-0.8,0.2-1.5,0.9-1.9
					c0.6-0.4,1.4-0.5,2.1-0.4C710.6,882.7,710.9,883.1,710.9,883.7z"/>
				<path class="st0" d="M720.1,859c-0.5,0.3-1,0.7-1.5,0.9c-0.1,0.1-0.4,0.1-0.4,0c-0.4-0.4-0.8-0.7-1-1.1c-0.6-1.2-0.3-2,0.8-2.7
					c0.2-0.1,0.4-0.1,0.6-0.1c0.3,0,0.5,0,0.8,0c1,0,1.6,0.8,1.3,1.8C720.5,858.2,720.3,858.6,720.1,859z"/>
				<path class="st0" d="M691.3,849.4c-0.1-0.3-0.4-0.6-0.4-0.9c-0.1-1,0.8-2,1.8-2c1,0,1.8,0.6,1.7,1.5c-0.1,0.6-0.2,1.5-1,1.8
					c-0.3,0.1-0.5,0.2-0.8,0.3C692,850.3,691.7,849.7,691.3,849.4z"/>
				<path class="st0" d="M677.3,865c-0.3,0.3-0.5,0.7-0.8,0.9c-0.9,0.6-2.1,0-2.2-1.1c-0.2-1.6,1-2.4,2.4-2.1
					c0.7,0.1,1.1,1.1,0.8,1.9C677.4,864.6,677.3,864.8,677.3,865z"/>
				<path class="st0" d="M686.8,877.2c-0.1,0.8-0.5,1.4-1.1,1.7c-0.9,0.5-1.8,0-2-1c-0.4-1.7,1.1-2.6,2.5-2.3
					c0.3,0.1,0.5,0.7,0.7,1.1C686.8,876.9,686.8,877.1,686.8,877.2z"/>
				<path class="st0" d="M697.8,853.9c-0.6,0.2-1.3-0.1-1.5-0.6c-0.6-1.3-0.3-1.9,0.8-2.6c0.8-0.6,2-0.2,2.1,0.9
					C699.3,852.3,699,853.5,697.8,853.9z"/>
				<path class="st0" d="M680,881.5c-0.2,0.8-0.9,1-1.4,1.4c-0.1,0-0.3,0-0.4-0.1c-0.7-0.4-1.1-1-1.2-1.9c-0.1-0.7,0.6-1.5,1.4-1.7
					c1.1-0.2,1.7,0.1,1.9,1.3C680.3,880.8,680.1,881.1,680,881.5z"/>
				<path class="st0" d="M680.4,864.8c-1.1-1.2-0.5-2.8,1-3.1c0.6-0.1,1.2,0.1,1.4,0.9c0.2,0.8,0.2,1.5-0.4,2
					C681.6,865.4,681.2,865.6,680.4,864.8z"/>
				<path class="st0" d="M680,871.1c-0.6-1.1-0.3-2.2,0.8-2.6c0.5-0.2,1-0.1,1.6,0c0.1,0,0.4,0.4,0.4,0.5c0,0.6,0.3,1.4-0.3,1.9
					c-0.4,0.4-0.8,0.7-1.2,1c-0.1,0.1-0.4,0-0.5-0.1C680.4,871.6,680.2,871.4,680,871.1z"/>
				<path class="st0" d="M716.8,874c0.3,0.5,0.2,1.3-0.2,1.7c-0.2,0.3-0.5,0.5-0.9,0.7c-0.2,0.1-0.6,0.3-0.8,0.2
					c-0.4-0.3-0.9-0.7-1-1.1c-0.4-1.1,0.1-2,1.2-2.4C716,872.9,716.7,873.2,716.8,874z"/>
				<path class="st0" d="M700.2,846.3c0.3,1.5-0.4,2.2-1.5,2.6c-0.2,0.1-0.7-0.2-1-0.5c-1-1.1-0.5-2.2,0.6-2.8
					C699.1,845.4,699.9,845.6,700.2,846.3z"/>
				<path class="st0" d="M709,842c0.9,0.5,1,1.8,0.3,2.6c-0.1,0.2-0.3,0.3-0.5,0.5c-0.8,0.5-1.8,0-2-1c-0.2-1,0.6-2.1,1.7-2.1
					C708.6,842,708.8,842,709,842z"/>
				<path class="st0" d="M713.4,880.5c0.4-0.4,0.9-0.7,1.5-0.7c0.7,0,1.4,0.9,1.2,1.5c-0.2,0.8-0.6,1.4-1.4,1.7
					c-0.3,0.1-0.5,0.1-0.8-0.1C713,882.4,712.8,881.3,713.4,880.5z"/>
				<path class="st0" d="M717.2,856c-0.2,0.2-0.4,0.5-0.6,0.6c-0.8,0.6-1.8,0.2-2.1-0.8c-0.2-0.7,0-1.3,0.5-1.7
					c0.6-0.5,1.2-0.6,1.9-0.3c0.4,0.1,0.6,1.1,0.4,1.6C717.4,855.6,717.3,855.8,717.2,856z"/>
				<path class="st0" d="M696.6,840.4c0.6-0.8,1.4-0.6,2.2-0.5c0.4,0,0.6,0.9,0.6,1.4c-0.1,0.9-0.9,1.3-1.5,1.8
					c-0.1,0.1-0.3,0-0.4-0.1c-0.4-0.3-0.8-0.7-1-1.1C696.3,841.4,696.2,840.8,696.6,840.4z"/>
				<path class="st0" d="M675.3,868.9c-0.1,1-0.7,1.5-1.5,1.9c-0.5,0.2-0.9-0.1-1.1-0.4c-0.7-1.1-0.8-1.7,0.4-2.5
					c0.4-0.3,1.1-0.3,1.6-0.1C675,867.8,675.1,868.4,675.3,868.9z"/>
				<path class="st0" d="M704.7,866.5c0.2,0.5,0.3,0.9,0.1,1.5c-0.3,0.5-0.6,0.8-1.2,1c-0.3,0.1-0.8-0.2-1-0.6
					c-0.2-0.6,0-1.4,0.4-1.8C703.4,866.1,704.3,866.2,704.7,866.5z"/>
				<path class="st0" d="M710.7,862.2c0-0.4-0.2-0.8,0.3-1c0.2-0.1,0.6-0.2,0.8-0.1c0.3,0.2,0.4,0.5,0.2,0.9
					C711.5,862.5,711.2,862.8,710.7,862.2z"/>
				<path class="st0" d="M694.2,870c-0.1,0.4-0.3,0.7-0.5,1c-0.2,0.3-0.6,0.2-0.8-0.1c-0.1-0.2-0.2-0.5-0.2-0.7
					c0-0.4,0.4-0.4,0.7-0.4C693.7,869.8,693.9,869.9,694.2,870z"/>
				<path class="st0" d="M708.5,860.4c0.2,0.5,0,1.1-0.5,1.2c-0.2,0-0.5-0.1-0.6-0.3c-0.1-0.2-0.2-0.5-0.1-0.7
					C707.7,860.3,708.1,860.2,708.5,860.4z"/>
				<path class="st0" d="M687.6,874.4c-0.4-0.5-0.4-0.9-0.1-1.1c0.4-0.3,0.7-0.1,1,0.1c0.1,0.1,0.1,0.2,0.1,0.2
					C688.3,873.9,688.2,874.4,687.6,874.4z"/>
				<path class="st0" d="M704.6,876.5c-0.6,0-0.8-0.1-0.7-0.6c0-0.4,0.3-0.6,0.7-0.5c0.2,0,0.4,0.2,0.4,0.3
					C705.1,876,705,876.3,704.6,876.5z"/>
			</g>
		</g>
	</g>
	<g>
		<path class="st0" d="M1397.5,616.8c0,2.6-0.1,5.2-1.3,7.5c-1.4,2.5-4,4.1-6.5,5.6c-50.3,29.8-100.5,59.6-150.8,89.4
			c-2,1.2-4,2.3-6.3,2.4c-2.5,0.1-4.8-1.2-7-2.4c-51.7-29.6-103.4-59.1-155.1-88.7c-2.3-1.3-4.8-2.8-6.1-5.2c-1.1-2-1.1-4.4-1.1-6.7
			c0.1-58.6,0.2-117.1,0.3-175.7c0-2.9,0.1-6,1.6-8.5c1.4-2.3,3.8-3.7,6.2-5c51.1-29.1,102.1-58.2,153.2-87.4
			c2.1-1.2,4.3-2.4,6.7-2.5c2.6-0.1,5,1.2,7.2,2.5c50.4,28.1,100.8,56.2,151.2,84.3c2.1,1.2,4.2,2.4,5.5,4.4c1.5,2.2,1.6,5,1.6,7.7
			C1398.2,497.9,1398.4,557.4,1397.5,616.8"/>
		<path class="st4" d="M1222,418.9c-1,6.9-1.1,14.1-3.4,20.7c-2.3,6.6-7.6,12.8-14.6,13.7c-6.6,0.8-13-3.4-16.5-9
			c-3.5-5.6-4.6-12.3-5.3-18.9c-0.7-7.4-10.2-11.3-17.3-8.9c-7.1,2.3-12,8.7-16.1,14.9c-4.1,6.2-8.2,12.8-14.7,16.5
			c-6.5,3.7-16.2,2.9-19.7-3.7c-2-3.9-1.4-8.5-0.3-12.8c2.5-9.4,7.1-18.3,13.4-25.7c-17.1,9.6-34.1,19.2-51.2,28.7
			c-1.7,0.9-3.4,1.9-4.5,3.5c-1.3,1.9-1.3,4.4-1.3,6.7c0,56,0,111.9,0.1,167.9c0,4.3,0.4,9.4,4.2,11.6
			c50.5,28.9,101,57.8,151.5,86.7c3.2,1.8,7.1,3.6,10.2,1.8c49.4-29.3,98.8-58.7,148.2-88c2-1.2,4-2.4,5.1-4.4c1-1.8,1-4,1-6.1
			c-0.1-56.1-0.1-112.2-0.2-168.2c0-4.7-0.5-10.3-4.6-12.6c-21.7-12.1-43.5-24.1-65.2-36.2c-3.4,5.1-10.4,6.6-16.4,5.4
			c-6-1.3-11.2-4.8-16.2-8.2c2.1,7.4,4.2,14.7,6.4,22.1c1.8,6.2,3.6,12.4,3.4,18.8c-0.2,6.4-2.7,13-8,16.7
			c-10.6,7.3-25.3-0.8-33.4-10.8c-8.1-10-14.5-22.6-26.5-27.5c-1.6-0.6-3.4-1.1-5-0.4C1223,414.1,1222.3,416.7,1222,418.9"/>
		<path class="st3" d="M1221.2,406.8c5.3-3.5,12.5-1.3,17.7,2.3c12.6,8.8,18.8,24.3,30.8,33.8c4.5,3.6,10.9,6.2,15.9,3.3
			c3.3-1.9,5-5.6,5.5-9.3c1.9-12.7-6.9-24.3-9.4-36.8c-0.9-4.5-0.5-10.1,3.5-12.4c3.1-1.8,7.1-0.7,10.2,1.1s5.7,4.4,9,5.9
			s7.6,1.6,10-1.1c-27.3-15.3-54.7-30.6-82-45.9c-1.6-0.9-3.7,0-5.3,1c-27.6,15.7-55.2,31.4-82.7,47.1c-2.4,1.4-4.9,2.8-6.4,5.1
			c-5.9,8.8-11.2,18-15.9,27.5c-1.2,2.4-2.4,4.9-2.5,7.5c-0.1,2.7,1.1,5.6,3.5,6.7c3,1.4,6.5-0.4,9.1-2.4
			c5.7-4.5,9.9-10.5,14.3-16.2c4.5-5.7,9.5-11.3,16.1-14.3c6.6-3,15.2-2.8,20.3,2.3c4.1,4,5.2,9.9,6.3,15.5s2.4,11.5,6.6,15.3
			s12.3,3.8,14.6-1.4c2.1-4.8,3.5-9.9,4.1-15.2C1215.3,419.2,1215.3,410.8,1221.2,406.8z"/>
	</g>
	<path class="st0" d="M1928.9,919.3c0,2.6-0.1,5.2-1.3,7.5c-1.4,2.5-4,4.1-6.5,5.6c-50.3,29.8-100.5,59.6-150.8,89.4
		c-2,1.2-4,2.3-6.3,2.4c-2.5,0.1-4.8-1.2-7-2.4c-51.7-29.6-103.4-59.1-155.1-88.7c-2.3-1.3-4.8-2.8-6.1-5.2c-1.1-2-1.1-4.4-1.1-6.7
		c0.1-58.6,0.2-117.1,0.3-175.7c0-2.9,0.1-6,1.6-8.5c1.4-2.3,3.8-3.7,6.2-5c51.1-29.1,102.1-58.2,153.2-87.4
		c2.1-1.2,4.3-2.4,6.7-2.5c2.6-0.1,5,1.2,7.2,2.5c50.4,28.1,100.8,56.2,151.2,84.3c2.1,1.2,4.2,2.4,5.5,4.4c1.5,2.2,1.6,5,1.6,7.7
		C1929.7,800.4,1929.9,859.9,1928.9,919.3"/>
	<path class="st8" d="M1753.4,721.5c-1,6.9-1.1,14.1-3.4,20.7s-7.6,12.8-14.6,13.7c-6.6,0.8-13-3.4-16.5-9
		c-3.5-5.6-4.6-12.3-5.3-18.9c-0.7-7.4-10.2-11.3-17.3-8.9c-7.1,2.3-12,8.7-16.1,14.9c-4.1,6.2-8.2,12.8-14.7,16.5
		c-6.5,3.7-16.2,2.9-19.7-3.7c-2-3.9-1.4-8.5-0.3-12.8c2.5-9.4,7.1-18.3,13.4-25.7c-17.1,9.6-34.1,19.2-51.2,28.7
		c-1.7,0.9-3.4,1.9-4.5,3.5c-1.3,1.9-1.3,4.4-1.3,6.7c0,56,0,111.9,0.1,167.9c0,4.3,0.4,9.4,4.2,11.6c50.5,28.9,101,57.8,151.5,86.7
		c3.2,1.8,7.1,3.6,10.2,1.8c49.4-29.3,98.8-58.7,148.2-88c2-1.2,4-2.4,5.1-4.4c1-1.8,1-4,1-6.1c-0.1-56.1-0.1-112.2-0.2-168.2
		c0-4.7-0.5-10.3-4.6-12.6c-21.7-12.1-43.5-24.1-65.2-36.2c-3.4,5.1-10.4,6.6-16.4,5.4c-6-1.3-11.2-4.8-16.2-8.2
		c2.1,7.4,4.2,14.7,6.4,22.1c1.8,6.2,3.6,12.4,3.4,18.8c-0.2,6.4-2.7,13-8,16.7c-10.6,7.3-25.3-0.8-33.4-10.8
		c-8.1-10-14.5-22.6-26.5-27.5c-1.6-0.6-3.4-1.1-5-0.4C1754.4,716.7,1753.8,719.2,1753.4,721.5"/>
	<path class="st3" d="M1752.7,709.4c5.3-3.5,12.5-1.3,17.7,2.3c12.6,8.8,18.8,24.3,30.8,33.8c4.5,3.6,10.9,6.2,15.9,3.3
		c3.3-1.9,5-5.6,5.5-9.3c1.9-12.7-6.9-24.3-9.4-36.8c-0.9-4.5-0.5-10.1,3.5-12.4c3.1-1.8,7.1-0.7,10.2,1.1c3.1,1.8,5.7,4.4,9,5.9
		c3.3,1.5,7.6,1.6,10-1.1c-27.3-15.3-54.7-30.6-82-45.9c-1.6-0.9-3.7,0-5.3,1c-27.6,15.7-55.2,31.4-82.7,47.1
		c-2.4,1.4-4.9,2.8-6.4,5.1c-5.9,8.8-11.2,18-15.9,27.5c-1.2,2.4-2.4,4.9-2.5,7.5c-0.1,2.7,1.1,5.6,3.5,6.7c3,1.4,6.5-0.4,9.1-2.4
		c5.7-4.5,9.9-10.5,14.3-16.2c4.5-5.7,9.5-11.3,16.1-14.3c6.6-3,15.2-2.8,20.3,2.3c4.1,4,5.2,9.9,6.3,15.5c1,5.6,2.4,11.5,6.6,15.3
		s12.3,3.8,14.6-1.4c2.1-4.8,3.5-9.9,4.1-15.2C1746.8,721.7,1746.7,713.3,1752.7,709.4z"/>
</g>
<g id="Single">
</g>
</svg>
